ISO-10303-21;
HEADER;
/* Generated by software containing ST-Developer
 * from STEP Tools, Inc. (www.steptools.com) 
 */

FILE_DESCRIPTION(
/* description */ (''),
/* implementation_level */ '2;1');

FILE_NAME(
/* name */ 'neck_hole_template.step',
/* time_stamp */ '2026-08-21T21:14:28+01:00',
/* author */ (''),
/* organization */ (''),
/* preprocessor_version */ 'ST-DEVELOPER v20.1',
/* originating_system */ 'Autodesk Translation Framework v15.8.0.0',
/* authorisation */ '');

FILE_SCHEMA (('AUTOMOTIVE_DESIGN { 1 0 10303 214 3 1 1 }'));
ENDSEC;

DATA;
#10=MECHANICAL_DESIGN_GEOMETRIC_PRESENTATION_REPRESENTATION('',(#13),#956);
#11=SHAPE_REPRESENTATION_RELATIONSHIP('SRR','None',#963,#12);
#12=ADVANCED_BREP_SHAPE_REPRESENTATION('',(#14),#955);
#13=STYLED_ITEM('',(#972),#14);
#14=MANIFOLD_SOLID_BREP('Body3',#568);
#15=CYLINDRICAL_SURFACE('',#601,1.00000001490116);
#16=CYLINDRICAL_SURFACE('',#605,1.00000001490116);
#17=CYLINDRICAL_SURFACE('',#609,1.00000001490116);
#18=CYLINDRICAL_SURFACE('',#613,1.00000001490116);
#19=CYLINDRICAL_SURFACE('',#617,1.00000001490116);
#20=CYLINDRICAL_SURFACE('',#621,1.00000001490116);
#21=CYLINDRICAL_SURFACE('',#625,1.00000001490116);
#22=CYLINDRICAL_SURFACE('',#629,1.00000001490116);
#23=FACE_BOUND('',#112,.T.);
#24=FACE_BOUND('',#113,.T.);
#25=FACE_BOUND('',#114,.T.);
#26=FACE_BOUND('',#115,.T.);
#27=FACE_BOUND('',#116,.T.);
#28=FACE_BOUND('',#117,.T.);
#29=FACE_BOUND('',#118,.T.);
#30=FACE_BOUND('',#119,.T.);
#31=FACE_BOUND('',#141,.T.);
#32=FACE_BOUND('',#142,.T.);
#33=FACE_BOUND('',#143,.T.);
#34=FACE_BOUND('',#144,.T.);
#35=FACE_BOUND('',#145,.T.);
#36=FACE_BOUND('',#146,.T.);
#37=FACE_BOUND('',#147,.T.);
#38=FACE_BOUND('',#148,.T.);
#39=CIRCLE('',#591,2.00000001490116);
#40=CIRCLE('',#592,1.00000001490116);
#41=CIRCLE('',#594,2.00000001490116);
#42=CIRCLE('',#595,2.00000001490116);
#43=CIRCLE('',#596,2.00000001490116);
#44=CIRCLE('',#597,2.00000001490116);
#45=CIRCLE('',#598,2.00000001490116);
#46=CIRCLE('',#599,2.00000001490116);
#47=CIRCLE('',#600,2.00000001490116);
#48=CIRCLE('',#602,1.00000001490116);
#49=CIRCLE('',#604,1.00000001490116);
#50=CIRCLE('',#606,1.00000001490116);
#51=CIRCLE('',#608,1.00000001490116);
#52=CIRCLE('',#610,1.00000001490116);
#53=CIRCLE('',#612,1.00000001490116);
#54=CIRCLE('',#614,1.00000001490116);
#55=CIRCLE('',#616,1.00000001490116);
#56=CIRCLE('',#618,1.00000001490116);
#57=CIRCLE('',#620,1.00000001490116);
#58=CIRCLE('',#622,1.00000001490116);
#59=CIRCLE('',#624,1.00000001490116);
#60=CIRCLE('',#626,1.00000001490116);
#61=CIRCLE('',#628,1.00000001490116);
#62=CIRCLE('',#630,1.00000001490116);
#63=CONICAL_SURFACE('',#590,1.50000001490116,0.785398163397448);
#64=CONICAL_SURFACE('',#603,1.50000001490116,0.785398163397448);
#65=CONICAL_SURFACE('',#607,1.50000001490116,0.785398163397446);
#66=CONICAL_SURFACE('',#611,1.50000001490116,0.785398163397448);
#67=CONICAL_SURFACE('',#615,1.50000001490116,0.785398163397448);
#68=CONICAL_SURFACE('',#619,1.50000001490116,0.785398163397448);
#69=CONICAL_SURFACE('',#623,1.50000001490116,0.785398163397448);
#70=CONICAL_SURFACE('',#627,1.50000001490116,0.785398163397446);
#71=FACE_OUTER_BOUND('',#102,.T.);
#72=FACE_OUTER_BOUND('',#103,.T.);
#73=FACE_OUTER_BOUND('',#104,.T.);
#74=FACE_OUTER_BOUND('',#105,.T.);
#75=FACE_OUTER_BOUND('',#106,.T.);
#76=FACE_OUTER_BOUND('',#107,.T.);
#77=FACE_OUTER_BOUND('',#108,.T.);
#78=FACE_OUTER_BOUND('',#109,.T.);
#79=FACE_OUTER_BOUND('',#110,.T.);
#80=FACE_OUTER_BOUND('',#111,.T.);
#81=FACE_OUTER_BOUND('',#120,.T.);
#82=FACE_OUTER_BOUND('',#121,.T.);
#83=FACE_OUTER_BOUND('',#122,.T.);
#84=FACE_OUTER_BOUND('',#123,.T.);
#85=FACE_OUTER_BOUND('',#124,.T.);
#86=FACE_OUTER_BOUND('',#125,.T.);
#87=FACE_OUTER_BOUND('',#126,.T.);
#88=FACE_OUTER_BOUND('',#127,.T.);
#89=FACE_OUTER_BOUND('',#128,.T.);
#90=FACE_OUTER_BOUND('',#129,.T.);
#91=FACE_OUTER_BOUND('',#130,.T.);
#92=FACE_OUTER_BOUND('',#131,.T.);
#93=FACE_OUTER_BOUND('',#132,.T.);
#94=FACE_OUTER_BOUND('',#133,.T.);
#95=FACE_OUTER_BOUND('',#134,.T.);
#96=FACE_OUTER_BOUND('',#135,.T.);
#97=FACE_OUTER_BOUND('',#136,.T.);
#98=FACE_OUTER_BOUND('',#137,.T.);
#99=FACE_OUTER_BOUND('',#138,.T.);
#100=FACE_OUTER_BOUND('',#139,.T.);
#101=FACE_OUTER_BOUND('',#140,.T.);
#102=EDGE_LOOP('',(#372,#373,#374,#375));
#103=EDGE_LOOP('',(#376,#377,#378,#379,#380,#381,#382,#383));
#104=EDGE_LOOP('',(#384,#385,#386,#387));
#105=EDGE_LOOP('',(#388,#389,#390,#391));
#106=EDGE_LOOP('',(#392,#393,#394,#395));
#107=EDGE_LOOP('',(#396,#397,#398,#399));
#108=EDGE_LOOP('',(#400,#401,#402,#403));
#109=EDGE_LOOP('',(#404,#405,#406,#407,#408,#409,#410,#411));
#110=EDGE_LOOP('',(#412,#413,#414,#415));
#111=EDGE_LOOP('',(#416,#417,#418,#419));
#112=EDGE_LOOP('',(#420));
#113=EDGE_LOOP('',(#421));
#114=EDGE_LOOP('',(#422));
#115=EDGE_LOOP('',(#423));
#116=EDGE_LOOP('',(#424));
#117=EDGE_LOOP('',(#425));
#118=EDGE_LOOP('',(#426));
#119=EDGE_LOOP('',(#427));
#120=EDGE_LOOP('',(#428,#429,#430,#431));
#121=EDGE_LOOP('',(#432,#433,#434,#435));
#122=EDGE_LOOP('',(#436,#437,#438,#439));
#123=EDGE_LOOP('',(#440,#441,#442,#443));
#124=EDGE_LOOP('',(#444,#445,#446,#447));
#125=EDGE_LOOP('',(#448,#449,#450,#451));
#126=EDGE_LOOP('',(#452,#453,#454,#455));
#127=EDGE_LOOP('',(#456,#457,#458,#459));
#128=EDGE_LOOP('',(#460,#461,#462,#463));
#129=EDGE_LOOP('',(#464,#465,#466,#467));
#130=EDGE_LOOP('',(#468,#469,#470,#471));
#131=EDGE_LOOP('',(#472,#473,#474,#475));
#132=EDGE_LOOP('',(#476,#477,#478,#479));
#133=EDGE_LOOP('',(#480,#481,#482,#483));
#134=EDGE_LOOP('',(#484,#485,#486,#487));
#135=EDGE_LOOP('',(#488,#489,#490,#491));
#136=EDGE_LOOP('',(#492,#493,#494,#495));
#137=EDGE_LOOP('',(#496,#497,#498,#499));
#138=EDGE_LOOP('',(#500,#501,#502,#503));
#139=EDGE_LOOP('',(#504,#505,#506,#507));
#140=EDGE_LOOP('',(#508,#509,#510,#511,#512,#513));
#141=EDGE_LOOP('',(#514));
#142=EDGE_LOOP('',(#515));
#143=EDGE_LOOP('',(#516));
#144=EDGE_LOOP('',(#517));
#145=EDGE_LOOP('',(#518));
#146=EDGE_LOOP('',(#519));
#147=EDGE_LOOP('',(#520));
#148=EDGE_LOOP('',(#521));
#149=LINE('',#804,#200);
#150=LINE('',#806,#201);
#151=LINE('',#808,#202);
#152=LINE('',#809,#203);
#153=LINE('',#812,#204);
#154=LINE('',#814,#205);
#155=LINE('',#816,#206);
#156=LINE('',#818,#207);
#157=LINE('',#820,#208);
#158=LINE('',#822,#209);
#159=LINE('',#823,#210);
#160=LINE('',#826,#211);
#161=LINE('',#828,#212);
#162=LINE('',#829,#213);
#163=LINE('',#832,#214);
#164=LINE('',#834,#215);
#165=LINE('',#835,#216);
#166=LINE('',#838,#217);
#167=LINE('',#840,#218);
#168=LINE('',#841,#219);
#169=LINE('',#844,#220);
#170=LINE('',#845,#221);
#171=LINE('',#847,#222);
#172=LINE('',#848,#223);
#173=LINE('',#851,#224);
#174=LINE('',#853,#225);
#175=LINE('',#854,#226);
#176=LINE('',#859,#227);
#177=LINE('',#863,#228);
#178=LINE('',#865,#229);
#179=LINE('',#866,#230);
#180=LINE('',#883,#231);
#181=LINE('',#887,#232);
#182=LINE('',#891,#233);
#183=LINE('',#895,#234);
#184=LINE('',#899,#235);
#185=LINE('',#903,#236);
#186=LINE('',#907,#237);
#187=LINE('',#911,#238);
#188=LINE('',#915,#239);
#189=LINE('',#919,#240);
#190=LINE('',#923,#241);
#191=LINE('',#927,#242);
#192=LINE('',#931,#243);
#193=LINE('',#935,#244);
#194=LINE('',#939,#245);
#195=LINE('',#942,#246);
#196=LINE('',#945,#247);
#197=LINE('',#946,#248);
#198=LINE('',#948,#249);
#199=LINE('',#950,#250);
#200=VECTOR('',#641,10.);
#201=VECTOR('',#642,10.);
#202=VECTOR('',#643,10.);
#203=VECTOR('',#644,10.);
#204=VECTOR('',#647,10.);
#205=VECTOR('',#648,10.);
#206=VECTOR('',#649,10.);
#207=VECTOR('',#650,10.);
#208=VECTOR('',#651,10.);
#209=VECTOR('',#652,10.);
#210=VECTOR('',#653,10.);
#211=VECTOR('',#656,10.);
#212=VECTOR('',#657,10.);
#213=VECTOR('',#658,10.);
#214=VECTOR('',#661,10.);
#215=VECTOR('',#662,10.);
#216=VECTOR('',#663,10.);
#217=VECTOR('',#666,10.);
#218=VECTOR('',#667,10.);
#219=VECTOR('',#668,10.);
#220=VECTOR('',#671,10.);
#221=VECTOR('',#672,10.);
#222=VECTOR('',#675,10.);
#223=VECTOR('',#676,10.);
#224=VECTOR('',#679,10.);
#225=VECTOR('',#680,10.);
#226=VECTOR('',#681,10.);
#227=VECTOR('',#686,1.50000001490116);
#228=VECTOR('',#691,10.);
#229=VECTOR('',#692,10.);
#230=VECTOR('',#693,10.);
#231=VECTOR('',#710,1.00000001490116);
#232=VECTOR('',#715,1.50000001490116);
#233=VECTOR('',#720,1.00000001490116);
#234=VECTOR('',#725,1.50000001490116);
#235=VECTOR('',#730,1.00000001490116);
#236=VECTOR('',#735,1.50000001490116);
#237=VECTOR('',#740,1.00000001490116);
#238=VECTOR('',#745,1.50000001490116);
#239=VECTOR('',#750,1.00000001490116);
#240=VECTOR('',#755,1.50000001490116);
#241=VECTOR('',#760,1.00000001490116);
#242=VECTOR('',#765,1.50000001490116);
#243=VECTOR('',#770,1.00000001490116);
#244=VECTOR('',#775,1.50000001490116);
#245=VECTOR('',#780,1.00000001490116);
#246=VECTOR('',#785,10.);
#247=VECTOR('',#788,10.);
#248=VECTOR('',#789,10.);
#249=VECTOR('',#792,10.);
#250=VECTOR('',#795,10.);
#251=VERTEX_POINT('',#802);
#252=VERTEX_POINT('',#803);
#253=VERTEX_POINT('',#805);
#254=VERTEX_POINT('',#807);
#255=VERTEX_POINT('',#811);
#256=VERTEX_POINT('',#813);
#257=VERTEX_POINT('',#815);
#258=VERTEX_POINT('',#817);
#259=VERTEX_POINT('',#819);
#260=VERTEX_POINT('',#821);
#261=VERTEX_POINT('',#825);
#262=VERTEX_POINT('',#827);
#263=VERTEX_POINT('',#831);
#264=VERTEX_POINT('',#833);
#265=VERTEX_POINT('',#837);
#266=VERTEX_POINT('',#839);
#267=VERTEX_POINT('',#843);
#268=VERTEX_POINT('',#850);
#269=VERTEX_POINT('',#852);
#270=VERTEX_POINT('',#856);
#271=VERTEX_POINT('',#858);
#272=VERTEX_POINT('',#862);
#273=VERTEX_POINT('',#864);
#274=VERTEX_POINT('',#867);
#275=VERTEX_POINT('',#869);
#276=VERTEX_POINT('',#871);
#277=VERTEX_POINT('',#873);
#278=VERTEX_POINT('',#875);
#279=VERTEX_POINT('',#877);
#280=VERTEX_POINT('',#879);
#281=VERTEX_POINT('',#882);
#282=VERTEX_POINT('',#886);
#283=VERTEX_POINT('',#890);
#284=VERTEX_POINT('',#894);
#285=VERTEX_POINT('',#898);
#286=VERTEX_POINT('',#902);
#287=VERTEX_POINT('',#906);
#288=VERTEX_POINT('',#910);
#289=VERTEX_POINT('',#914);
#290=VERTEX_POINT('',#918);
#291=VERTEX_POINT('',#922);
#292=VERTEX_POINT('',#926);
#293=VERTEX_POINT('',#930);
#294=VERTEX_POINT('',#934);
#295=VERTEX_POINT('',#938);
#296=VERTEX_POINT('',#944);
#297=EDGE_CURVE('',#251,#252,#149,.T.);
#298=EDGE_CURVE('',#252,#253,#150,.T.);
#299=EDGE_CURVE('',#253,#254,#151,.F.);
#300=EDGE_CURVE('',#254,#251,#152,.T.);
#301=EDGE_CURVE('',#253,#255,#153,.T.);
#302=EDGE_CURVE('',#256,#252,#154,.T.);
#303=EDGE_CURVE('',#257,#256,#155,.T.);
#304=EDGE_CURVE('',#257,#258,#156,.T.);
#305=EDGE_CURVE('',#258,#259,#157,.T.);
#306=EDGE_CURVE('',#260,#259,#158,.T.);
#307=EDGE_CURVE('',#255,#260,#159,.T.);
#308=EDGE_CURVE('',#251,#261,#160,.T.);
#309=EDGE_CURVE('',#262,#261,#161,.T.);
#310=EDGE_CURVE('',#262,#252,#162,.T.);
#311=EDGE_CURVE('',#260,#263,#163,.T.);
#312=EDGE_CURVE('',#263,#264,#164,.T.);
#313=EDGE_CURVE('',#264,#255,#165,.F.);
#314=EDGE_CURVE('',#265,#263,#166,.T.);
#315=EDGE_CURVE('',#266,#265,#167,.T.);
#316=EDGE_CURVE('',#266,#264,#168,.T.);
#317=EDGE_CURVE('',#260,#267,#169,.T.);
#318=EDGE_CURVE('',#267,#265,#170,.T.);
#319=EDGE_CURVE('',#261,#265,#171,.T.);
#320=EDGE_CURVE('',#267,#262,#172,.T.);
#321=EDGE_CURVE('',#259,#268,#173,.T.);
#322=EDGE_CURVE('',#268,#269,#174,.T.);
#323=EDGE_CURVE('',#269,#256,#175,.T.);
#324=EDGE_CURVE('',#270,#270,#39,.T.);
#325=EDGE_CURVE('',#270,#271,#176,.T.);
#326=EDGE_CURVE('',#271,#271,#40,.T.);
#327=EDGE_CURVE('',#272,#257,#177,.T.);
#328=EDGE_CURVE('',#273,#272,#178,.T.);
#329=EDGE_CURVE('',#258,#273,#179,.T.);
#330=EDGE_CURVE('',#274,#274,#41,.T.);
#331=EDGE_CURVE('',#275,#275,#42,.T.);
#332=EDGE_CURVE('',#276,#276,#43,.T.);
#333=EDGE_CURVE('',#277,#277,#44,.T.);
#334=EDGE_CURVE('',#278,#278,#45,.T.);
#335=EDGE_CURVE('',#279,#279,#46,.T.);
#336=EDGE_CURVE('',#280,#280,#47,.T.);
#337=EDGE_CURVE('',#271,#281,#180,.T.);
#338=EDGE_CURVE('',#281,#281,#48,.T.);
#339=EDGE_CURVE('',#274,#282,#181,.T.);
#340=EDGE_CURVE('',#282,#282,#49,.T.);
#341=EDGE_CURVE('',#282,#283,#182,.T.);
#342=EDGE_CURVE('',#283,#283,#50,.T.);
#343=EDGE_CURVE('',#280,#284,#183,.T.);
#344=EDGE_CURVE('',#284,#284,#51,.T.);
#345=EDGE_CURVE('',#284,#285,#184,.T.);
#346=EDGE_CURVE('',#285,#285,#52,.T.);
#347=EDGE_CURVE('',#275,#286,#185,.T.);
#348=EDGE_CURVE('',#286,#286,#53,.T.);
#349=EDGE_CURVE('',#286,#287,#186,.T.);
#350=EDGE_CURVE('',#287,#287,#54,.T.);
#351=EDGE_CURVE('',#279,#288,#187,.T.);
#352=EDGE_CURVE('',#288,#288,#55,.T.);
#353=EDGE_CURVE('',#288,#289,#188,.T.);
#354=EDGE_CURVE('',#289,#289,#56,.T.);
#355=EDGE_CURVE('',#276,#290,#189,.T.);
#356=EDGE_CURVE('',#290,#290,#57,.T.);
#357=EDGE_CURVE('',#290,#291,#190,.T.);
#358=EDGE_CURVE('',#291,#291,#58,.T.);
#359=EDGE_CURVE('',#278,#292,#191,.T.);
#360=EDGE_CURVE('',#292,#292,#59,.T.);
#361=EDGE_CURVE('',#292,#293,#192,.T.);
#362=EDGE_CURVE('',#293,#293,#60,.T.);
#363=EDGE_CURVE('',#277,#294,#193,.T.);
#364=EDGE_CURVE('',#294,#294,#61,.T.);
#365=EDGE_CURVE('',#294,#295,#194,.T.);
#366=EDGE_CURVE('',#295,#295,#62,.T.);
#367=EDGE_CURVE('',#273,#268,#195,.T.);
#368=EDGE_CURVE('',#296,#261,#196,.T.);
#369=EDGE_CURVE('',#296,#266,#197,.T.);
#370=EDGE_CURVE('',#254,#296,#198,.T.);
#371=EDGE_CURVE('',#272,#269,#199,.T.);
#372=ORIENTED_EDGE('',*,*,#297,.T.);
#373=ORIENTED_EDGE('',*,*,#298,.T.);
#374=ORIENTED_EDGE('',*,*,#299,.T.);
#375=ORIENTED_EDGE('',*,*,#300,.T.);
#376=ORIENTED_EDGE('',*,*,#301,.F.);
#377=ORIENTED_EDGE('',*,*,#298,.F.);
#378=ORIENTED_EDGE('',*,*,#302,.F.);
#379=ORIENTED_EDGE('',*,*,#303,.F.);
#380=ORIENTED_EDGE('',*,*,#304,.T.);
#381=ORIENTED_EDGE('',*,*,#305,.T.);
#382=ORIENTED_EDGE('',*,*,#306,.F.);
#383=ORIENTED_EDGE('',*,*,#307,.F.);
#384=ORIENTED_EDGE('',*,*,#297,.F.);
#385=ORIENTED_EDGE('',*,*,#308,.T.);
#386=ORIENTED_EDGE('',*,*,#309,.F.);
#387=ORIENTED_EDGE('',*,*,#310,.T.);
#388=ORIENTED_EDGE('',*,*,#311,.T.);
#389=ORIENTED_EDGE('',*,*,#312,.T.);
#390=ORIENTED_EDGE('',*,*,#313,.T.);
#391=ORIENTED_EDGE('',*,*,#307,.T.);
#392=ORIENTED_EDGE('',*,*,#312,.F.);
#393=ORIENTED_EDGE('',*,*,#314,.F.);
#394=ORIENTED_EDGE('',*,*,#315,.F.);
#395=ORIENTED_EDGE('',*,*,#316,.T.);
#396=ORIENTED_EDGE('',*,*,#311,.F.);
#397=ORIENTED_EDGE('',*,*,#317,.T.);
#398=ORIENTED_EDGE('',*,*,#318,.T.);
#399=ORIENTED_EDGE('',*,*,#314,.T.);
#400=ORIENTED_EDGE('',*,*,#319,.T.);
#401=ORIENTED_EDGE('',*,*,#318,.F.);
#402=ORIENTED_EDGE('',*,*,#320,.T.);
#403=ORIENTED_EDGE('',*,*,#309,.T.);
#404=ORIENTED_EDGE('',*,*,#310,.F.);
#405=ORIENTED_EDGE('',*,*,#320,.F.);
#406=ORIENTED_EDGE('',*,*,#317,.F.);
#407=ORIENTED_EDGE('',*,*,#306,.T.);
#408=ORIENTED_EDGE('',*,*,#321,.T.);
#409=ORIENTED_EDGE('',*,*,#322,.T.);
#410=ORIENTED_EDGE('',*,*,#323,.T.);
#411=ORIENTED_EDGE('',*,*,#302,.T.);
#412=ORIENTED_EDGE('',*,*,#324,.T.);
#413=ORIENTED_EDGE('',*,*,#325,.T.);
#414=ORIENTED_EDGE('',*,*,#326,.T.);
#415=ORIENTED_EDGE('',*,*,#325,.F.);
#416=ORIENTED_EDGE('',*,*,#304,.F.);
#417=ORIENTED_EDGE('',*,*,#327,.F.);
#418=ORIENTED_EDGE('',*,*,#328,.F.);
#419=ORIENTED_EDGE('',*,*,#329,.F.);
#420=ORIENTED_EDGE('',*,*,#330,.F.);
#421=ORIENTED_EDGE('',*,*,#331,.F.);
#422=ORIENTED_EDGE('',*,*,#332,.F.);
#423=ORIENTED_EDGE('',*,*,#333,.F.);
#424=ORIENTED_EDGE('',*,*,#334,.F.);
#425=ORIENTED_EDGE('',*,*,#335,.F.);
#426=ORIENTED_EDGE('',*,*,#336,.F.);
#427=ORIENTED_EDGE('',*,*,#324,.F.);
#428=ORIENTED_EDGE('',*,*,#326,.F.);
#429=ORIENTED_EDGE('',*,*,#337,.T.);
#430=ORIENTED_EDGE('',*,*,#338,.T.);
#431=ORIENTED_EDGE('',*,*,#337,.F.);
#432=ORIENTED_EDGE('',*,*,#330,.T.);
#433=ORIENTED_EDGE('',*,*,#339,.T.);
#434=ORIENTED_EDGE('',*,*,#340,.T.);
#435=ORIENTED_EDGE('',*,*,#339,.F.);
#436=ORIENTED_EDGE('',*,*,#340,.F.);
#437=ORIENTED_EDGE('',*,*,#341,.T.);
#438=ORIENTED_EDGE('',*,*,#342,.T.);
#439=ORIENTED_EDGE('',*,*,#341,.F.);
#440=ORIENTED_EDGE('',*,*,#336,.T.);
#441=ORIENTED_EDGE('',*,*,#343,.T.);
#442=ORIENTED_EDGE('',*,*,#344,.T.);
#443=ORIENTED_EDGE('',*,*,#343,.F.);
#444=ORIENTED_EDGE('',*,*,#344,.F.);
#445=ORIENTED_EDGE('',*,*,#345,.T.);
#446=ORIENTED_EDGE('',*,*,#346,.T.);
#447=ORIENTED_EDGE('',*,*,#345,.F.);
#448=ORIENTED_EDGE('',*,*,#331,.T.);
#449=ORIENTED_EDGE('',*,*,#347,.T.);
#450=ORIENTED_EDGE('',*,*,#348,.T.);
#451=ORIENTED_EDGE('',*,*,#347,.F.);
#452=ORIENTED_EDGE('',*,*,#348,.F.);
#453=ORIENTED_EDGE('',*,*,#349,.T.);
#454=ORIENTED_EDGE('',*,*,#350,.T.);
#455=ORIENTED_EDGE('',*,*,#349,.F.);
#456=ORIENTED_EDGE('',*,*,#335,.T.);
#457=ORIENTED_EDGE('',*,*,#351,.T.);
#458=ORIENTED_EDGE('',*,*,#352,.T.);
#459=ORIENTED_EDGE('',*,*,#351,.F.);
#460=ORIENTED_EDGE('',*,*,#352,.F.);
#461=ORIENTED_EDGE('',*,*,#353,.T.);
#462=ORIENTED_EDGE('',*,*,#354,.T.);
#463=ORIENTED_EDGE('',*,*,#353,.F.);
#464=ORIENTED_EDGE('',*,*,#332,.T.);
#465=ORIENTED_EDGE('',*,*,#355,.T.);
#466=ORIENTED_EDGE('',*,*,#356,.T.);
#467=ORIENTED_EDGE('',*,*,#355,.F.);
#468=ORIENTED_EDGE('',*,*,#356,.F.);
#469=ORIENTED_EDGE('',*,*,#357,.T.);
#470=ORIENTED_EDGE('',*,*,#358,.T.);
#471=ORIENTED_EDGE('',*,*,#357,.F.);
#472=ORIENTED_EDGE('',*,*,#334,.T.);
#473=ORIENTED_EDGE('',*,*,#359,.T.);
#474=ORIENTED_EDGE('',*,*,#360,.T.);
#475=ORIENTED_EDGE('',*,*,#359,.F.);
#476=ORIENTED_EDGE('',*,*,#360,.F.);
#477=ORIENTED_EDGE('',*,*,#361,.T.);
#478=ORIENTED_EDGE('',*,*,#362,.T.);
#479=ORIENTED_EDGE('',*,*,#361,.F.);
#480=ORIENTED_EDGE('',*,*,#333,.T.);
#481=ORIENTED_EDGE('',*,*,#363,.T.);
#482=ORIENTED_EDGE('',*,*,#364,.T.);
#483=ORIENTED_EDGE('',*,*,#363,.F.);
#484=ORIENTED_EDGE('',*,*,#364,.F.);
#485=ORIENTED_EDGE('',*,*,#365,.T.);
#486=ORIENTED_EDGE('',*,*,#366,.T.);
#487=ORIENTED_EDGE('',*,*,#365,.F.);
#488=ORIENTED_EDGE('',*,*,#329,.T.);
#489=ORIENTED_EDGE('',*,*,#367,.T.);
#490=ORIENTED_EDGE('',*,*,#321,.F.);
#491=ORIENTED_EDGE('',*,*,#305,.F.);
#492=ORIENTED_EDGE('',*,*,#319,.F.);
#493=ORIENTED_EDGE('',*,*,#368,.F.);
#494=ORIENTED_EDGE('',*,*,#369,.T.);
#495=ORIENTED_EDGE('',*,*,#315,.T.);
#496=ORIENTED_EDGE('',*,*,#300,.F.);
#497=ORIENTED_EDGE('',*,*,#370,.T.);
#498=ORIENTED_EDGE('',*,*,#368,.T.);
#499=ORIENTED_EDGE('',*,*,#308,.F.);
#500=ORIENTED_EDGE('',*,*,#327,.T.);
#501=ORIENTED_EDGE('',*,*,#303,.T.);
#502=ORIENTED_EDGE('',*,*,#323,.F.);
#503=ORIENTED_EDGE('',*,*,#371,.F.);
#504=ORIENTED_EDGE('',*,*,#328,.T.);
#505=ORIENTED_EDGE('',*,*,#371,.T.);
#506=ORIENTED_EDGE('',*,*,#322,.F.);
#507=ORIENTED_EDGE('',*,*,#367,.F.);
#508=ORIENTED_EDGE('',*,*,#301,.T.);
#509=ORIENTED_EDGE('',*,*,#313,.F.);
#510=ORIENTED_EDGE('',*,*,#316,.F.);
#511=ORIENTED_EDGE('',*,*,#369,.F.);
#512=ORIENTED_EDGE('',*,*,#370,.F.);
#513=ORIENTED_EDGE('',*,*,#299,.F.);
#514=ORIENTED_EDGE('',*,*,#362,.F.);
#515=ORIENTED_EDGE('',*,*,#358,.F.);
#516=ORIENTED_EDGE('',*,*,#338,.F.);
#517=ORIENTED_EDGE('',*,*,#354,.F.);
#518=ORIENTED_EDGE('',*,*,#366,.F.);
#519=ORIENTED_EDGE('',*,*,#350,.F.);
#520=ORIENTED_EDGE('',*,*,#346,.F.);
#521=ORIENTED_EDGE('',*,*,#342,.F.);
#522=PLANE('',#582);
#523=PLANE('',#583);
#524=PLANE('',#584);
#525=PLANE('',#585);
#526=PLANE('',#586);
#527=PLANE('',#587);
#528=PLANE('',#588);
#529=PLANE('',#589);
#530=PLANE('',#593);
#531=PLANE('',#631);
#532=PLANE('',#632);
#533=PLANE('',#633);
#534=PLANE('',#634);
#535=PLANE('',#635);
#536=PLANE('',#636);
#537=ADVANCED_FACE('',(#71),#522,.T.);
#538=ADVANCED_FACE('',(#72),#523,.T.);
#539=ADVANCED_FACE('',(#73),#524,.T.);
#540=ADVANCED_FACE('',(#74),#525,.T.);
#541=ADVANCED_FACE('',(#75),#526,.T.);
#542=ADVANCED_FACE('',(#76),#527,.T.);
#543=ADVANCED_FACE('',(#77),#528,.T.);
#544=ADVANCED_FACE('',(#78),#529,.T.);
#545=ADVANCED_FACE('',(#79),#63,.F.);
#546=ADVANCED_FACE('',(#80,#23,#24,#25,#26,#27,#28,#29,#30),#530,.T.);
#547=ADVANCED_FACE('',(#81),#15,.F.);
#548=ADVANCED_FACE('',(#82),#64,.F.);
#549=ADVANCED_FACE('',(#83),#16,.F.);
#550=ADVANCED_FACE('',(#84),#65,.F.);
#551=ADVANCED_FACE('',(#85),#17,.F.);
#552=ADVANCED_FACE('',(#86),#66,.F.);
#553=ADVANCED_FACE('',(#87),#18,.F.);
#554=ADVANCED_FACE('',(#88),#67,.F.);
#555=ADVANCED_FACE('',(#89),#19,.F.);
#556=ADVANCED_FACE('',(#90),#68,.F.);
#557=ADVANCED_FACE('',(#91),#20,.F.);
#558=ADVANCED_FACE('',(#92),#69,.F.);
#559=ADVANCED_FACE('',(#93),#21,.F.);
#560=ADVANCED_FACE('',(#94),#70,.F.);
#561=ADVANCED_FACE('',(#95),#22,.F.);
#562=ADVANCED_FACE('',(#96),#531,.T.);
#563=ADVANCED_FACE('',(#97),#532,.T.);
#564=ADVANCED_FACE('',(#98),#533,.T.);
#565=ADVANCED_FACE('',(#99),#534,.T.);
#566=ADVANCED_FACE('',(#100),#535,.T.);
#567=ADVANCED_FACE('',(#101,#31,#32,#33,#34,#35,#36,#37,#38),#536,.F.);
#568=CLOSED_SHELL('',(#537,#538,#539,#540,#541,#542,#543,#544,#545,#546,
#547,#548,#549,#550,#551,#552,#553,#554,#555,#556,#557,#558,#559,#560,#561,
#562,#563,#564,#565,#566,#567));
#569=DERIVED_UNIT_ELEMENT(#571,1.);
#570=DERIVED_UNIT_ELEMENT(#958,-3.);
#571=(
MASS_UNIT()
NAMED_UNIT(*)
SI_UNIT(.KILO.,.GRAM.)
);
#572=DERIVED_UNIT((#569,#570));
#573=MEASURE_REPRESENTATION_ITEM('density measure',
POSITIVE_RATIO_MEASURE(7850.),#572);
#574=PROPERTY_DEFINITION_REPRESENTATION(#579,#576);
#575=PROPERTY_DEFINITION_REPRESENTATION(#580,#577);
#576=REPRESENTATION('material name',(#578),#955);
#577=REPRESENTATION('density',(#573),#955);
#578=DESCRIPTIVE_REPRESENTATION_ITEM('Steel','Steel');
#579=PROPERTY_DEFINITION('material property','material name',#965);
#580=PROPERTY_DEFINITION('material property','density of part',#965);
#581=AXIS2_PLACEMENT_3D('',#800,#637,#638);
#582=AXIS2_PLACEMENT_3D('',#801,#639,#640);
#583=AXIS2_PLACEMENT_3D('',#810,#645,#646);
#584=AXIS2_PLACEMENT_3D('',#824,#654,#655);
#585=AXIS2_PLACEMENT_3D('',#830,#659,#660);
#586=AXIS2_PLACEMENT_3D('',#836,#664,#665);
#587=AXIS2_PLACEMENT_3D('',#842,#669,#670);
#588=AXIS2_PLACEMENT_3D('',#846,#673,#674);
#589=AXIS2_PLACEMENT_3D('',#849,#677,#678);
#590=AXIS2_PLACEMENT_3D('',#855,#682,#683);
#591=AXIS2_PLACEMENT_3D('',#857,#684,#685);
#592=AXIS2_PLACEMENT_3D('',#860,#687,#688);
#593=AXIS2_PLACEMENT_3D('',#861,#689,#690);
#594=AXIS2_PLACEMENT_3D('',#868,#694,#695);
#595=AXIS2_PLACEMENT_3D('',#870,#696,#697);
#596=AXIS2_PLACEMENT_3D('',#872,#698,#699);
#597=AXIS2_PLACEMENT_3D('',#874,#700,#701);
#598=AXIS2_PLACEMENT_3D('',#876,#702,#703);
#599=AXIS2_PLACEMENT_3D('',#878,#704,#705);
#600=AXIS2_PLACEMENT_3D('',#880,#706,#707);
#601=AXIS2_PLACEMENT_3D('',#881,#708,#709);
#602=AXIS2_PLACEMENT_3D('',#884,#711,#712);
#603=AXIS2_PLACEMENT_3D('',#885,#713,#714);
#604=AXIS2_PLACEMENT_3D('',#888,#716,#717);
#605=AXIS2_PLACEMENT_3D('',#889,#718,#719);
#606=AXIS2_PLACEMENT_3D('',#892,#721,#722);
#607=AXIS2_PLACEMENT_3D('',#893,#723,#724);
#608=AXIS2_PLACEMENT_3D('',#896,#726,#727);
#609=AXIS2_PLACEMENT_3D('',#897,#728,#729);
#610=AXIS2_PLACEMENT_3D('',#900,#731,#732);
#611=AXIS2_PLACEMENT_3D('',#901,#733,#734);
#612=AXIS2_PLACEMENT_3D('',#904,#736,#737);
#613=AXIS2_PLACEMENT_3D('',#905,#738,#739);
#614=AXIS2_PLACEMENT_3D('',#908,#741,#742);
#615=AXIS2_PLACEMENT_3D('',#909,#743,#744);
#616=AXIS2_PLACEMENT_3D('',#912,#746,#747);
#617=AXIS2_PLACEMENT_3D('',#913,#748,#749);
#618=AXIS2_PLACEMENT_3D('',#916,#751,#752);
#619=AXIS2_PLACEMENT_3D('',#917,#753,#754);
#620=AXIS2_PLACEMENT_3D('',#920,#756,#757);
#621=AXIS2_PLACEMENT_3D('',#921,#758,#759);
#622=AXIS2_PLACEMENT_3D('',#924,#761,#762);
#623=AXIS2_PLACEMENT_3D('',#925,#763,#764);
#624=AXIS2_PLACEMENT_3D('',#928,#766,#767);
#625=AXIS2_PLACEMENT_3D('',#929,#768,#769);
#626=AXIS2_PLACEMENT_3D('',#932,#771,#772);
#627=AXIS2_PLACEMENT_3D('',#933,#773,#774);
#628=AXIS2_PLACEMENT_3D('',#936,#776,#777);
#629=AXIS2_PLACEMENT_3D('',#937,#778,#779);
#630=AXIS2_PLACEMENT_3D('',#940,#781,#782);
#631=AXIS2_PLACEMENT_3D('',#941,#783,#784);
#632=AXIS2_PLACEMENT_3D('',#943,#786,#787);
#633=AXIS2_PLACEMENT_3D('',#947,#790,#791);
#634=AXIS2_PLACEMENT_3D('',#949,#793,#794);
#635=AXIS2_PLACEMENT_3D('',#951,#796,#797);
#636=AXIS2_PLACEMENT_3D('',#952,#798,#799);
#637=DIRECTION('axis',(0.,0.,1.));
#638=DIRECTION('refdir',(1.,0.,0.));
#639=DIRECTION('center_axis',(0.707106781186549,-0.707106781186546,0.));
#640=DIRECTION('ref_axis',(0.,0.,-1.));
#641=DIRECTION('',(0.577350269189624,0.577350269189627,-0.577350269189626));
#642=DIRECTION('',(0.,0.,1.));
#643=DIRECTION('',(0.707106781186546,0.707106781186549,0.));
#644=DIRECTION('',(0.,0.,-1.));
#645=DIRECTION('center_axis',(1.,0.,0.));
#646=DIRECTION('ref_axis',(0.,1.,0.));
#647=DIRECTION('',(0.,-1.,0.));
#648=DIRECTION('',(0.,-1.,0.));
#649=DIRECTION('',(0.,0.,-1.));
#650=DIRECTION('',(0.,-1.,0.));
#651=DIRECTION('',(0.,0.,-1.));
#652=DIRECTION('',(0.,-1.,0.));
#653=DIRECTION('',(0.,0.,-1.));
#654=DIRECTION('center_axis',(0.,-0.707106781186547,-0.707106781186548));
#655=DIRECTION('ref_axis',(-1.,0.,0.));
#656=DIRECTION('',(-1.,0.,0.));
#657=DIRECTION('',(0.577350269189626,-0.577350269189626,0.577350269189625));
#658=DIRECTION('',(1.,0.,0.));
#659=DIRECTION('center_axis',(0.707106781186547,0.707106781186548,0.));
#660=DIRECTION('ref_axis',(0.,0.,-1.));
#661=DIRECTION('',(-0.577350269189626,0.577350269189626,0.577350269189626));
#662=DIRECTION('',(0.,0.,1.));
#663=DIRECTION('',(-0.707106781186548,0.707106781186547,0.));
#664=DIRECTION('center_axis',(0.,1.,0.));
#665=DIRECTION('ref_axis',(1.,0.,0.));
#666=DIRECTION('',(1.,0.,0.));
#667=DIRECTION('',(0.,0.,-1.));
#668=DIRECTION('',(1.,0.,0.));
#669=DIRECTION('center_axis',(0.,0.707106781186548,-0.707106781186548));
#670=DIRECTION('ref_axis',(-1.,0.,0.));
#671=DIRECTION('',(-1.,0.,0.));
#672=DIRECTION('',(0.577350269189626,0.577350269189626,0.577350269189626));
#673=DIRECTION('center_axis',(0.707106781186548,0.,-0.707106781186548));
#674=DIRECTION('ref_axis',(-0.707106781186548,0.,-0.707106781186548));
#675=DIRECTION('',(0.,-1.,0.));
#676=DIRECTION('',(0.,1.,0.));
#677=DIRECTION('center_axis',(0.,0.,-1.));
#678=DIRECTION('ref_axis',(-1.,0.,0.));
#679=DIRECTION('',(-1.,0.,0.));
#680=DIRECTION('',(0.,1.,0.));
#681=DIRECTION('',(1.,0.,0.));
#682=DIRECTION('center_axis',(0.,0.,1.));
#683=DIRECTION('ref_axis',(-1.,0.,0.));
#684=DIRECTION('center_axis',(0.,0.,1.));
#685=DIRECTION('ref_axis',(-1.,0.,0.));
#686=DIRECTION('',(-0.707106781186547,-8.65956056235493E-17,-0.707106781186548));
#687=DIRECTION('center_axis',(0.,0.,-1.));
#688=DIRECTION('ref_axis',(-1.,0.,0.));
#689=DIRECTION('center_axis',(0.,0.,1.));
#690=DIRECTION('ref_axis',(-1.,0.,0.));
#691=DIRECTION('',(1.,0.,0.));
#692=DIRECTION('',(0.,1.,0.));
#693=DIRECTION('',(-1.,0.,0.));
#694=DIRECTION('center_axis',(0.,0.,1.));
#695=DIRECTION('ref_axis',(-1.,0.,0.));
#696=DIRECTION('center_axis',(0.,0.,1.));
#697=DIRECTION('ref_axis',(-1.,0.,0.));
#698=DIRECTION('center_axis',(0.,0.,1.));
#699=DIRECTION('ref_axis',(-1.,0.,0.));
#700=DIRECTION('center_axis',(0.,0.,1.));
#701=DIRECTION('ref_axis',(-1.,0.,0.));
#702=DIRECTION('center_axis',(0.,0.,1.));
#703=DIRECTION('ref_axis',(-1.,0.,0.));
#704=DIRECTION('center_axis',(0.,0.,1.));
#705=DIRECTION('ref_axis',(-1.,0.,0.));
#706=DIRECTION('center_axis',(0.,0.,1.));
#707=DIRECTION('ref_axis',(-1.,0.,0.));
#708=DIRECTION('center_axis',(0.,0.,1.));
#709=DIRECTION('ref_axis',(-1.,0.,0.));
#710=DIRECTION('',(0.,0.,-1.));
#711=DIRECTION('center_axis',(0.,0.,-1.));
#712=DIRECTION('ref_axis',(-1.,0.,0.));
#713=DIRECTION('center_axis',(0.,0.,1.));
#714=DIRECTION('ref_axis',(-1.,0.,0.));
#715=DIRECTION('',(-0.707106781186548,-8.65956056235493E-17,-0.707106781186548));
#716=DIRECTION('center_axis',(0.,0.,-1.));
#717=DIRECTION('ref_axis',(-1.,0.,0.));
#718=DIRECTION('center_axis',(0.,0.,1.));
#719=DIRECTION('ref_axis',(-1.,0.,0.));
#720=DIRECTION('',(0.,0.,-1.));
#721=DIRECTION('center_axis',(0.,0.,-1.));
#722=DIRECTION('ref_axis',(-1.,0.,0.));
#723=DIRECTION('center_axis',(0.,0.,1.));
#724=DIRECTION('ref_axis',(-1.,0.,0.));
#725=DIRECTION('',(-0.707106781186546,-8.65956056235491E-17,-0.707106781186549));
#726=DIRECTION('center_axis',(0.,0.,-1.));
#727=DIRECTION('ref_axis',(-1.,0.,0.));
#728=DIRECTION('center_axis',(0.,0.,1.));
#729=DIRECTION('ref_axis',(-1.,0.,0.));
#730=DIRECTION('',(0.,0.,-1.));
#731=DIRECTION('center_axis',(0.,0.,-1.));
#732=DIRECTION('ref_axis',(-1.,0.,0.));
#733=DIRECTION('center_axis',(0.,0.,1.));
#734=DIRECTION('ref_axis',(-1.,0.,0.));
#735=DIRECTION('',(-0.707106781186548,-8.65956056235493E-17,-0.707106781186548));
#736=DIRECTION('center_axis',(0.,0.,-1.));
#737=DIRECTION('ref_axis',(-1.,0.,0.));
#738=DIRECTION('center_axis',(0.,0.,1.));
#739=DIRECTION('ref_axis',(-1.,0.,0.));
#740=DIRECTION('',(0.,0.,-1.));
#741=DIRECTION('center_axis',(0.,0.,-1.));
#742=DIRECTION('ref_axis',(-1.,0.,0.));
#743=DIRECTION('center_axis',(0.,0.,1.));
#744=DIRECTION('ref_axis',(-1.,0.,0.));
#745=DIRECTION('',(-0.707106781186548,-8.65956056235493E-17,-0.707106781186548));
#746=DIRECTION('center_axis',(0.,0.,-1.));
#747=DIRECTION('ref_axis',(-1.,0.,0.));
#748=DIRECTION('center_axis',(0.,0.,1.));
#749=DIRECTION('ref_axis',(-1.,0.,0.));
#750=DIRECTION('',(0.,0.,-1.));
#751=DIRECTION('center_axis',(0.,0.,-1.));
#752=DIRECTION('ref_axis',(-1.,0.,0.));
#753=DIRECTION('center_axis',(0.,0.,1.));
#754=DIRECTION('ref_axis',(-1.,0.,0.));
#755=DIRECTION('',(-0.707106781186547,-8.65956056235493E-17,-0.707106781186548));
#756=DIRECTION('center_axis',(0.,0.,-1.));
#757=DIRECTION('ref_axis',(-1.,0.,0.));
#758=DIRECTION('center_axis',(0.,0.,1.));
#759=DIRECTION('ref_axis',(-1.,0.,0.));
#760=DIRECTION('',(0.,0.,-1.));
#761=DIRECTION('center_axis',(0.,0.,-1.));
#762=DIRECTION('ref_axis',(-1.,0.,0.));
#763=DIRECTION('center_axis',(0.,0.,1.));
#764=DIRECTION('ref_axis',(-1.,0.,0.));
#765=DIRECTION('',(-0.707106781186548,-8.65956056235493E-17,-0.707106781186548));
#766=DIRECTION('center_axis',(0.,0.,-1.));
#767=DIRECTION('ref_axis',(-1.,0.,0.));
#768=DIRECTION('center_axis',(0.,0.,1.));
#769=DIRECTION('ref_axis',(-1.,0.,0.));
#770=DIRECTION('',(0.,0.,-1.));
#771=DIRECTION('center_axis',(0.,0.,-1.));
#772=DIRECTION('ref_axis',(-1.,0.,0.));
#773=DIRECTION('center_axis',(0.,0.,1.));
#774=DIRECTION('ref_axis',(-1.,0.,0.));
#775=DIRECTION('',(-0.707106781186546,-8.65956056235491E-17,-0.707106781186549));
#776=DIRECTION('center_axis',(0.,0.,-1.));
#777=DIRECTION('ref_axis',(-1.,0.,0.));
#778=DIRECTION('center_axis',(0.,0.,1.));
#779=DIRECTION('ref_axis',(-1.,0.,0.));
#780=DIRECTION('',(0.,0.,-1.));
#781=DIRECTION('center_axis',(0.,0.,-1.));
#782=DIRECTION('ref_axis',(-1.,0.,0.));
#783=DIRECTION('center_axis',(0.,-1.,0.));
#784=DIRECTION('ref_axis',(-1.,0.,0.));
#785=DIRECTION('',(0.,0.,-1.));
#786=DIRECTION('center_axis',(1.,0.,0.));
#787=DIRECTION('ref_axis',(0.,-1.,0.));
#788=DIRECTION('',(0.,0.,-1.));
#789=DIRECTION('',(0.,-1.,0.));
#790=DIRECTION('center_axis',(0.,-1.,0.));
#791=DIRECTION('ref_axis',(-1.,0.,0.));
#792=DIRECTION('',(-1.,0.,0.));
#793=DIRECTION('center_axis',(0.,1.,0.));
#794=DIRECTION('ref_axis',(1.,0.,0.));
#795=DIRECTION('',(0.,0.,-1.));
#796=DIRECTION('center_axis',(-1.,0.,0.));
#797=DIRECTION('ref_axis',(0.,1.,0.));
#798=DIRECTION('center_axis',(0.,0.,1.));
#799=DIRECTION('ref_axis',(-1.,0.,0.));
#800=CARTESIAN_POINT('',(0.,0.,0.));
#801=CARTESIAN_POINT('Origin',(59.,58.,27.));
#802=CARTESIAN_POINT('',(58.,57.,17.));
#803=CARTESIAN_POINT('',(60.,59.,15.));
#804=CARTESIAN_POINT('',(54.4166666666667,53.4166666666667,20.5833333333333));
#805=CARTESIAN_POINT('',(60.,59.,25.));
#806=CARTESIAN_POINT('',(60.,59.,27.));
#807=CARTESIAN_POINT('',(58.,57.,25.));
#808=CARTESIAN_POINT('',(44.375,43.375,25.));
#809=CARTESIAN_POINT('',(58.,57.,27.));
#810=CARTESIAN_POINT('Origin',(60.,0.,25.));
#811=CARTESIAN_POINT('',(60.,-2.,25.));
#812=CARTESIAN_POINT('',(60.,67.,25.));
#813=CARTESIAN_POINT('',(60.,67.,15.));
#814=CARTESIAN_POINT('',(60.,42.75,15.));
#815=CARTESIAN_POINT('',(60.,67.,29.));
#816=CARTESIAN_POINT('',(60.,67.,29.));
#817=CARTESIAN_POINT('',(60.,-10.,29.));
#818=CARTESIAN_POINT('',(60.,9.25,29.));
#819=CARTESIAN_POINT('',(60.,-10.,15.));
#820=CARTESIAN_POINT('',(60.,-10.,29.));
#821=CARTESIAN_POINT('',(60.,-2.,15.));
#822=CARTESIAN_POINT('',(60.,9.25,15.));
#823=CARTESIAN_POINT('',(60.,-2.,27.));
#824=CARTESIAN_POINT('Origin',(42.5,58.,16.));
#825=CARTESIAN_POINT('',(0.,57.,17.));
#826=CARTESIAN_POINT('',(42.5,57.,17.));
#827=CARTESIAN_POINT('',(-2.,59.,15.));
#828=CARTESIAN_POINT('',(-2.,59.,15.));
#829=CARTESIAN_POINT('',(42.5,59.,15.));
#830=CARTESIAN_POINT('Origin',(59.,-1.,27.));
#831=CARTESIAN_POINT('',(58.,0.,17.));
#832=CARTESIAN_POINT('',(49.4166666666667,8.58333333333334,25.5833333333333));
#833=CARTESIAN_POINT('',(58.,0.,25.));
#834=CARTESIAN_POINT('',(58.,0.,27.));
#835=CARTESIAN_POINT('',(44.375,13.625,25.));
#836=CARTESIAN_POINT('Origin',(0.,0.,29.));
#837=CARTESIAN_POINT('',(0.,0.,17.));
#838=CARTESIAN_POINT('',(12.5,0.,17.));
#839=CARTESIAN_POINT('',(0.,0.,25.));
#840=CARTESIAN_POINT('',(0.,0.,29.));
#841=CARTESIAN_POINT('',(0.,0.,25.));
#842=CARTESIAN_POINT('Origin',(12.5,-1.,16.));
#843=CARTESIAN_POINT('',(-2.,-2.,15.));
#844=CARTESIAN_POINT('',(12.5,-2.,15.));
#845=CARTESIAN_POINT('',(-2.,-2.,15.));
#846=CARTESIAN_POINT('Origin',(-1.,42.75,16.));
#847=CARTESIAN_POINT('',(0.,42.75,17.));
#848=CARTESIAN_POINT('',(-2.,42.75,15.));
#849=CARTESIAN_POINT('Origin',(25.,28.5,15.));
#850=CARTESIAN_POINT('',(-10.,-10.,15.));
#851=CARTESIAN_POINT('',(7.5,-10.,15.));
#852=CARTESIAN_POINT('',(-10.,67.,15.));
#853=CARTESIAN_POINT('',(-10.,47.75,15.));
#854=CARTESIAN_POINT('',(42.5,67.,15.));
#855=CARTESIAN_POINT('Origin',(10.0000056624413,13.0000001937151,28.5));
#856=CARTESIAN_POINT('',(12.0000056773424,13.0000001937151,29.));
#857=CARTESIAN_POINT('Origin',(10.0000056624413,13.0000001937151,29.));
#858=CARTESIAN_POINT('',(11.0000056773424,13.0000001937151,28.));
#859=CARTESIAN_POINT('',(11.5000056773424,13.0000001937151,28.5));
#860=CARTESIAN_POINT('Origin',(10.0000056624413,13.0000001937151,28.));
#861=CARTESIAN_POINT('Origin',(30.,28.5,29.));
#862=CARTESIAN_POINT('',(-10.,67.,29.));
#863=CARTESIAN_POINT('',(42.5,67.,29.));
#864=CARTESIAN_POINT('',(-10.,-10.,29.));
#865=CARTESIAN_POINT('',(-10.,47.75,29.));
#866=CARTESIAN_POINT('',(7.5,-10.,29.));
#867=CARTESIAN_POINT('',(32.0000056773424,13.0000001937151,29.));
#868=CARTESIAN_POINT('Origin',(30.0000056624413,13.0000001937151,29.));
#869=CARTESIAN_POINT('',(42.000005826354,28.5000004246831,29.));
#870=CARTESIAN_POINT('Origin',(40.0000058114529,28.5000004246831,29.));
#871=CARTESIAN_POINT('',(12.0000056773424,42.0000006258488,29.));
#872=CARTESIAN_POINT('Origin',(10.0000056624413,42.0000006258488,29.));
#873=CARTESIAN_POINT('',(52.0000059753656,42.0000006258488,29.));
#874=CARTESIAN_POINT('Origin',(50.0000059604645,42.0000006258488,29.));
#875=CARTESIAN_POINT('',(32.0000056773424,42.0000006258488,29.));
#876=CARTESIAN_POINT('Origin',(30.0000056624413,42.0000006258488,29.));
#877=CARTESIAN_POINT('',(22.000005826354,28.5000004246831,29.));
#878=CARTESIAN_POINT('Origin',(20.0000058114529,28.5000004246831,29.));
#879=CARTESIAN_POINT('',(52.0000059753656,13.0000001937151,29.));
#880=CARTESIAN_POINT('Origin',(50.0000059604645,13.0000001937151,29.));
#881=CARTESIAN_POINT('Origin',(10.0000056624413,13.0000001937151,25.));
#882=CARTESIAN_POINT('',(11.0000056773424,13.0000001937151,25.));
#883=CARTESIAN_POINT('',(11.0000056773424,13.0000001937151,25.));
#884=CARTESIAN_POINT('Origin',(10.0000056624413,13.0000001937151,25.));
#885=CARTESIAN_POINT('Origin',(30.0000056624413,13.0000001937151,28.5));
#886=CARTESIAN_POINT('',(31.0000056773424,13.0000001937151,28.));
#887=CARTESIAN_POINT('',(31.5000056773424,13.0000001937151,28.5));
#888=CARTESIAN_POINT('Origin',(30.0000056624413,13.0000001937151,28.));
#889=CARTESIAN_POINT('Origin',(30.0000056624413,13.0000001937151,25.));
#890=CARTESIAN_POINT('',(31.0000056773424,13.0000001937151,25.));
#891=CARTESIAN_POINT('',(31.0000056773424,13.0000001937151,25.));
#892=CARTESIAN_POINT('Origin',(30.0000056624413,13.0000001937151,25.));
#893=CARTESIAN_POINT('Origin',(50.0000059604645,13.0000001937151,28.5));
#894=CARTESIAN_POINT('',(51.0000059753656,13.0000001937151,28.));
#895=CARTESIAN_POINT('',(51.5000059753656,13.0000001937151,28.5));
#896=CARTESIAN_POINT('Origin',(50.0000059604645,13.0000001937151,28.));
#897=CARTESIAN_POINT('Origin',(50.0000059604645,13.0000001937151,25.));
#898=CARTESIAN_POINT('',(51.0000059753656,13.0000001937151,25.));
#899=CARTESIAN_POINT('',(51.0000059753656,13.0000001937151,25.));
#900=CARTESIAN_POINT('Origin',(50.0000059604645,13.0000001937151,25.));
#901=CARTESIAN_POINT('Origin',(40.0000058114529,28.5000004246831,28.5));
#902=CARTESIAN_POINT('',(41.000005826354,28.5000004246831,28.));
#903=CARTESIAN_POINT('',(41.500005826354,28.5000004246831,28.5));
#904=CARTESIAN_POINT('Origin',(40.0000058114529,28.5000004246831,28.));
#905=CARTESIAN_POINT('Origin',(40.0000058114529,28.5000004246831,25.));
#906=CARTESIAN_POINT('',(41.000005826354,28.5000004246831,25.));
#907=CARTESIAN_POINT('',(41.000005826354,28.5000004246831,25.));
#908=CARTESIAN_POINT('Origin',(40.0000058114529,28.5000004246831,25.));
#909=CARTESIAN_POINT('Origin',(20.0000058114529,28.5000004246831,28.5));
#910=CARTESIAN_POINT('',(21.000005826354,28.5000004246831,28.));
#911=CARTESIAN_POINT('',(21.500005826354,28.5000004246831,28.5));
#912=CARTESIAN_POINT('Origin',(20.0000058114529,28.5000004246831,28.));
#913=CARTESIAN_POINT('Origin',(20.0000058114529,28.5000004246831,25.));
#914=CARTESIAN_POINT('',(21.000005826354,28.5000004246831,25.));
#915=CARTESIAN_POINT('',(21.000005826354,28.5000004246831,25.));
#916=CARTESIAN_POINT('Origin',(20.0000058114529,28.5000004246831,25.));
#917=CARTESIAN_POINT('Origin',(10.0000056624413,42.0000006258488,28.5));
#918=CARTESIAN_POINT('',(11.0000056773424,42.0000006258488,28.));
#919=CARTESIAN_POINT('',(11.5000056773424,42.0000006258488,28.5));
#920=CARTESIAN_POINT('Origin',(10.0000056624413,42.0000006258488,28.));
#921=CARTESIAN_POINT('Origin',(10.0000056624413,42.0000006258488,25.));
#922=CARTESIAN_POINT('',(11.0000056773424,42.0000006258488,25.));
#923=CARTESIAN_POINT('',(11.0000056773424,42.0000006258488,25.));
#924=CARTESIAN_POINT('Origin',(10.0000056624413,42.0000006258488,25.));
#925=CARTESIAN_POINT('Origin',(30.0000056624413,42.0000006258488,28.5));
#926=CARTESIAN_POINT('',(31.0000056773424,42.0000006258488,28.));
#927=CARTESIAN_POINT('',(31.5000056773424,42.0000006258488,28.5));
#928=CARTESIAN_POINT('Origin',(30.0000056624413,42.0000006258488,28.));
#929=CARTESIAN_POINT('Origin',(30.0000056624413,42.0000006258488,25.));
#930=CARTESIAN_POINT('',(31.0000056773424,42.0000006258488,25.));
#931=CARTESIAN_POINT('',(31.0000056773424,42.0000006258488,25.));
#932=CARTESIAN_POINT('Origin',(30.0000056624413,42.0000006258488,25.));
#933=CARTESIAN_POINT('Origin',(50.0000059604645,42.0000006258488,28.5));
#934=CARTESIAN_POINT('',(51.0000059753656,42.0000006258488,28.));
#935=CARTESIAN_POINT('',(51.5000059753656,42.0000006258488,28.5));
#936=CARTESIAN_POINT('Origin',(50.0000059604645,42.0000006258488,28.));
#937=CARTESIAN_POINT('Origin',(50.0000059604645,42.0000006258488,25.));
#938=CARTESIAN_POINT('',(51.0000059753656,42.0000006258488,25.));
#939=CARTESIAN_POINT('',(51.0000059753656,42.0000006258488,25.));
#940=CARTESIAN_POINT('Origin',(50.0000059604645,42.0000006258488,25.));
#941=CARTESIAN_POINT('Origin',(60.,-10.,29.));
#942=CARTESIAN_POINT('',(-10.,-10.,29.));
#943=CARTESIAN_POINT('Origin',(0.,57.,29.));
#944=CARTESIAN_POINT('',(0.,57.,25.));
#945=CARTESIAN_POINT('',(0.,57.,29.));
#946=CARTESIAN_POINT('',(0.,57.,25.));
#947=CARTESIAN_POINT('Origin',(60.,57.,29.));
#948=CARTESIAN_POINT('',(575.,57.,25.));
#949=CARTESIAN_POINT('Origin',(-10.,67.,29.));
#950=CARTESIAN_POINT('',(-10.,67.,29.));
#951=CARTESIAN_POINT('Origin',(-10.,-10.,29.));
#952=CARTESIAN_POINT('Origin',(30.,28.5,25.));
#953=UNCERTAINTY_MEASURE_WITH_UNIT(LENGTH_MEASURE(0.01),#957,
'DISTANCE_ACCURACY_VALUE',
'Maximum model space distance between geometric entities at asserted c
onnectivities');
#954=UNCERTAINTY_MEASURE_WITH_UNIT(LENGTH_MEASURE(0.01),#957,
'DISTANCE_ACCURACY_VALUE',
'Maximum model space distance between geometric entities at asserted c
onnectivities');
#955=(
GEOMETRIC_REPRESENTATION_CONTEXT(3)
GLOBAL_UNCERTAINTY_ASSIGNED_CONTEXT((#953))
GLOBAL_UNIT_ASSIGNED_CONTEXT((#957,#959,#960))
REPRESENTATION_CONTEXT('','3D')
);
#956=(
GEOMETRIC_REPRESENTATION_CONTEXT(3)
GLOBAL_UNCERTAINTY_ASSIGNED_CONTEXT((#954))
GLOBAL_UNIT_ASSIGNED_CONTEXT((#957,#959,#960))
REPRESENTATION_CONTEXT('','3D')
);
#957=(
LENGTH_UNIT()
NAMED_UNIT(*)
SI_UNIT(.MILLI.,.METRE.)
);
#958=(
LENGTH_UNIT()
NAMED_UNIT(*)
SI_UNIT($,.METRE.)
);
#959=(
NAMED_UNIT(*)
PLANE_ANGLE_UNIT()
SI_UNIT($,.RADIAN.)
);
#960=(
NAMED_UNIT(*)
SI_UNIT($,.STERADIAN.)
SOLID_ANGLE_UNIT()
);
#961=SHAPE_DEFINITION_REPRESENTATION(#962,#963);
#962=PRODUCT_DEFINITION_SHAPE('',$,#965);
#963=SHAPE_REPRESENTATION('',(#581),#955);
#964=PRODUCT_DEFINITION_CONTEXT('part definition',#969,'design');
#965=PRODUCT_DEFINITION('neck_hole_template','neck_hole_template v2',#966,
#964);
#966=PRODUCT_DEFINITION_FORMATION('',$,#971);
#967=PRODUCT_RELATED_PRODUCT_CATEGORY('neck_hole_template v2',
'neck_hole_template v2',(#971));
#968=APPLICATION_PROTOCOL_DEFINITION('international standard',
'automotive_design',2009,#969);
#969=APPLICATION_CONTEXT(
'Core Data for Automotive Mechanical Design Process');
#970=PRODUCT_CONTEXT('part definition',#969,'mechanical');
#971=PRODUCT('neck_hole_template','neck_hole_template v2',$,(#970));
#972=PRESENTATION_STYLE_ASSIGNMENT((#973));
#973=SURFACE_STYLE_USAGE(.BOTH.,#974);
#974=SURFACE_SIDE_STYLE('',(#975));
#975=SURFACE_STYLE_FILL_AREA(#976);
#976=FILL_AREA_STYLE('Steel - Satin',(#977));
#977=FILL_AREA_STYLE_COLOUR('Steel - Satin',#978);
#978=COLOUR_RGB('Steel - Satin',0.627450980392157,0.627450980392157,0.627450980392157);
ENDSEC;
END-ISO-10303-21;
