ISO-10303-21;
HEADER;
/* Generated by software containing ST-Developer
 * from STEP Tools, Inc. (www.steptools.com) 
 */

FILE_DESCRIPTION(
/* description */ (''),
/* implementation_level */ '2;1');

FILE_NAME(
/* name */ 'neck_template.step',
/* time_stamp */ '2026-08-21T21:14:34+01:00',
/* author */ (''),
/* organization */ (''),
/* preprocessor_version */ 'ST-DEVELOPER v20.1',
/* originating_system */ 'Autodesk Translation Framework v15.8.0.0',
/* authorisation */ '');

FILE_SCHEMA (('AUTOMOTIVE_DESIGN { 1 0 10303 214 3 1 1 }'));
ENDSEC;

DATA;
#10=MECHANICAL_DESIGN_GEOMETRIC_PRESENTATION_REPRESENTATION('',(#19,#20),
#1028);
#11=SHAPE_REPRESENTATION_RELATIONSHIP('SRR','None',#1035,#12);
#12=ADVANCED_BREP_SHAPE_REPRESENTATION('',(#21,#22),#1027);
#13=CIRCLE('',#602,3.);
#14=CIRCLE('',#603,3.);
#15=CIRCLE('',#606,3.);
#16=CIRCLE('',#608,3.);
#17=CYLINDRICAL_SURFACE('',#601,3.);
#18=CYLINDRICAL_SURFACE('',#607,3.);
#19=STYLED_ITEM('',(#1044),#21);
#20=STYLED_ITEM('',(#1044),#22);
#21=MANIFOLD_SOLID_BREP('Body3',#571);
#22=MANIFOLD_SOLID_BREP('Body4',#572);
#23=B_SPLINE_SURFACE_WITH_KNOTS('',3,1,((#864,#865),(#866,#867),(#868,#869),
(#870,#871),(#872,#873),(#874,#875),(#876,#877),(#878,#879),(#880,#881),
(#882,#883),(#884,#885),(#886,#887),(#888,#889),(#890,#891),(#892,#893),
(#894,#895),(#896,#897),(#898,#899),(#900,#901),(#902,#903),(#904,#905),
(#906,#907),(#908,#909),(#910,#911),(#912,#913)),.UNSPECIFIED.,.F.,.F.,
 .F.,(4,3,3,3,3,3,3,3,4),(2,2),(-1.01,-1.,-0.817798363021666,-0.612490668171736,
-0.413975025498104,-0.211499650487568,-0.025811802170025,0.,0.01),(0.,5.),
 .UNSPECIFIED.);
#24=B_SPLINE_CURVE_WITH_KNOTS('',3,(#771,#772,#773,#774,#775,#776),
 .UNSPECIFIED.,.F.,.F.,(4,2,4),(0.,2.5,5.),.UNSPECIFIED.);
#25=B_SPLINE_CURVE_WITH_KNOTS('',3,(#801,#802,#803,#804,#805,#806,#807,
#808,#809,#810,#811,#812,#813,#814,#815,#816,#817,#818,#819,#820,#821,#822,
#823,#824,#825),.UNSPECIFIED.,.F.,.F.,(4,3,3,3,3,3,3,3,4),(-0.000199960014974509,
0.,0.025811802170025,0.211499650487568,0.413975025498104,0.612490668171736,
0.817798363021666,1.,1.00019995972905),.UNSPECIFIED.);
#26=B_SPLINE_CURVE_WITH_KNOTS('',3,(#915,#916,#917,#918,#919,#920,#921,
#922,#923,#924,#925,#926,#927,#928,#929,#930,#931,#932,#933,#934,#935,#936,
#937,#938,#939),.UNSPECIFIED.,.F.,.F.,(4,3,3,3,3,3,3,3,4),(-0.000199960014974471,
0.,0.025811802170025,0.211499650487568,0.413975025498104,0.612490668171736,
0.817798363021666,1.,1.00019995972905),.UNSPECIFIED.);
#27=B_SPLINE_CURVE_WITH_KNOTS('',3,(#940,#941,#942,#943,#944,#945),
 .UNSPECIFIED.,.F.,.F.,(4,2,4),(0.,2.5,5.),.UNSPECIFIED.);
#28=FACE_OUTER_BOUND('',#58,.T.);
#29=FACE_OUTER_BOUND('',#59,.T.);
#30=FACE_OUTER_BOUND('',#60,.T.);
#31=FACE_OUTER_BOUND('',#61,.T.);
#32=FACE_OUTER_BOUND('',#62,.T.);
#33=FACE_OUTER_BOUND('',#63,.T.);
#34=FACE_OUTER_BOUND('',#64,.T.);
#35=FACE_OUTER_BOUND('',#65,.T.);
#36=FACE_OUTER_BOUND('',#66,.T.);
#37=FACE_OUTER_BOUND('',#67,.T.);
#38=FACE_OUTER_BOUND('',#68,.T.);
#39=FACE_OUTER_BOUND('',#69,.T.);
#40=FACE_OUTER_BOUND('',#70,.T.);
#41=FACE_OUTER_BOUND('',#71,.T.);
#42=FACE_OUTER_BOUND('',#72,.T.);
#43=FACE_OUTER_BOUND('',#73,.T.);
#44=FACE_OUTER_BOUND('',#74,.T.);
#45=FACE_OUTER_BOUND('',#75,.T.);
#46=FACE_OUTER_BOUND('',#76,.T.);
#47=FACE_OUTER_BOUND('',#77,.T.);
#48=FACE_OUTER_BOUND('',#78,.T.);
#49=FACE_OUTER_BOUND('',#79,.T.);
#50=FACE_OUTER_BOUND('',#80,.T.);
#51=FACE_OUTER_BOUND('',#81,.T.);
#52=FACE_OUTER_BOUND('',#82,.T.);
#53=FACE_OUTER_BOUND('',#83,.T.);
#54=FACE_OUTER_BOUND('',#84,.T.);
#55=FACE_OUTER_BOUND('',#85,.T.);
#56=FACE_OUTER_BOUND('',#86,.T.);
#57=FACE_OUTER_BOUND('',#87,.T.);
#58=EDGE_LOOP('',(#358,#359,#360,#361));
#59=EDGE_LOOP('',(#362,#363,#364,#365));
#60=EDGE_LOOP('',(#366,#367,#368,#369,#370,#371,#372,#373,#374,#375,#376,
#377,#378,#379));
#61=EDGE_LOOP('',(#380,#381,#382,#383));
#62=EDGE_LOOP('',(#384,#385,#386,#387));
#63=EDGE_LOOP('',(#388,#389,#390,#391));
#64=EDGE_LOOP('',(#392,#393,#394,#395));
#65=EDGE_LOOP('',(#396,#397,#398,#399));
#66=EDGE_LOOP('',(#400,#401,#402,#403));
#67=EDGE_LOOP('',(#404,#405,#406,#407));
#68=EDGE_LOOP('',(#408,#409,#410,#411));
#69=EDGE_LOOP('',(#412,#413,#414,#415));
#70=EDGE_LOOP('',(#416,#417,#418,#419));
#71=EDGE_LOOP('',(#420,#421,#422,#423));
#72=EDGE_LOOP('',(#424,#425,#426,#427));
#73=EDGE_LOOP('',(#428,#429,#430,#431,#432,#433,#434,#435,#436,#437,#438,
#439,#440,#441));
#74=EDGE_LOOP('',(#442,#443,#444,#445));
#75=EDGE_LOOP('',(#446,#447,#448,#449));
#76=EDGE_LOOP('',(#450,#451,#452,#453,#454,#455,#456,#457,#458,#459,#460,
#461));
#77=EDGE_LOOP('',(#462,#463,#464,#465));
#78=EDGE_LOOP('',(#466,#467,#468,#469));
#79=EDGE_LOOP('',(#470,#471,#472,#473));
#80=EDGE_LOOP('',(#474,#475,#476,#477));
#81=EDGE_LOOP('',(#478,#479,#480,#481));
#82=EDGE_LOOP('',(#482,#483,#484,#485));
#83=EDGE_LOOP('',(#486,#487,#488,#489));
#84=EDGE_LOOP('',(#490,#491,#492,#493));
#85=EDGE_LOOP('',(#494,#495,#496,#497));
#86=EDGE_LOOP('',(#498,#499,#500,#501));
#87=EDGE_LOOP('',(#502,#503,#504,#505,#506,#507,#508,#509,#510,#511,#512,
#513));
#88=LINE('',#761,#158);
#89=LINE('',#763,#159);
#90=LINE('',#765,#160);
#91=LINE('',#766,#161);
#92=LINE('',#769,#162);
#93=LINE('',#777,#163);
#94=LINE('',#780,#164);
#95=LINE('',#782,#165);
#96=LINE('',#784,#166);
#97=LINE('',#786,#167);
#98=LINE('',#788,#168);
#99=LINE('',#790,#169);
#100=LINE('',#792,#170);
#101=LINE('',#794,#171);
#102=LINE('',#796,#172);
#103=LINE('',#798,#173);
#104=LINE('',#800,#174);
#105=LINE('',#828,#175);
#106=LINE('',#830,#176);
#107=LINE('',#831,#177);
#108=LINE('',#834,#178);
#109=LINE('',#835,#179);
#110=LINE('',#839,#180);
#111=LINE('',#840,#181);
#112=LINE('',#841,#182);
#113=LINE('',#845,#183);
#114=LINE('',#846,#184);
#115=LINE('',#847,#185);
#116=LINE('',#850,#186);
#117=LINE('',#851,#187);
#118=LINE('',#854,#188);
#119=LINE('',#855,#189);
#120=LINE('',#858,#190);
#121=LINE('',#859,#191);
#122=LINE('',#861,#192);
#123=LINE('',#863,#193);
#124=LINE('',#947,#194);
#125=LINE('',#949,#195);
#126=LINE('',#956,#196);
#127=LINE('',#959,#197);
#128=LINE('',#962,#198);
#129=LINE('',#964,#199);
#130=LINE('',#965,#200);
#131=LINE('',#968,#201);
#132=LINE('',#972,#202);
#133=LINE('',#974,#203);
#134=LINE('',#976,#204);
#135=LINE('',#978,#205);
#136=LINE('',#980,#206);
#137=LINE('',#982,#207);
#138=LINE('',#984,#208);
#139=LINE('',#985,#209);
#140=LINE('',#988,#210);
#141=LINE('',#991,#211);
#142=LINE('',#994,#212);
#143=LINE('',#995,#213);
#144=LINE('',#997,#214);
#145=LINE('',#1000,#215);
#146=LINE('',#1001,#216);
#147=LINE('',#1004,#217);
#148=LINE('',#1005,#218);
#149=LINE('',#1008,#219);
#150=LINE('',#1009,#220);
#151=LINE('',#1012,#221);
#152=LINE('',#1013,#222);
#153=LINE('',#1016,#223);
#154=LINE('',#1017,#224);
#155=LINE('',#1020,#225);
#156=LINE('',#1021,#226);
#157=LINE('',#1023,#227);
#158=VECTOR('',#623,10.);
#159=VECTOR('',#624,10.);
#160=VECTOR('',#625,10.);
#161=VECTOR('',#626,10.);
#162=VECTOR('',#629,10.);
#163=VECTOR('',#630,10.);
#164=VECTOR('',#633,10.);
#165=VECTOR('',#634,10.);
#166=VECTOR('',#635,10.);
#167=VECTOR('',#636,10.);
#168=VECTOR('',#637,10.);
#169=VECTOR('',#638,10.);
#170=VECTOR('',#639,10.);
#171=VECTOR('',#640,10.);
#172=VECTOR('',#641,10.);
#173=VECTOR('',#642,10.);
#174=VECTOR('',#643,10.);
#175=VECTOR('',#646,10.);
#176=VECTOR('',#647,10.);
#177=VECTOR('',#648,10.);
#178=VECTOR('',#651,10.);
#179=VECTOR('',#652,10.);
#180=VECTOR('',#655,10.);
#181=VECTOR('',#656,10.);
#182=VECTOR('',#657,10.);
#183=VECTOR('',#660,10.);
#184=VECTOR('',#661,10.);
#185=VECTOR('',#662,10.);
#186=VECTOR('',#665,10.);
#187=VECTOR('',#666,10.);
#188=VECTOR('',#669,10.);
#189=VECTOR('',#670,10.);
#190=VECTOR('',#673,10.);
#191=VECTOR('',#674,10.);
#192=VECTOR('',#677,10.);
#193=VECTOR('',#680,10.);
#194=VECTOR('',#683,10.);
#195=VECTOR('',#686,10.);
#196=VECTOR('',#693,10.);
#197=VECTOR('',#696,10.);
#198=VECTOR('',#699,10.);
#199=VECTOR('',#700,10.);
#200=VECTOR('',#701,10.);
#201=VECTOR('',#704,10.);
#202=VECTOR('',#707,10.);
#203=VECTOR('',#708,10.);
#204=VECTOR('',#709,10.);
#205=VECTOR('',#710,10.);
#206=VECTOR('',#711,10.);
#207=VECTOR('',#712,10.);
#208=VECTOR('',#713,10.);
#209=VECTOR('',#714,10.);
#210=VECTOR('',#717,10.);
#211=VECTOR('',#720,10.);
#212=VECTOR('',#723,10.);
#213=VECTOR('',#724,10.);
#214=VECTOR('',#727,10.);
#215=VECTOR('',#730,10.);
#216=VECTOR('',#731,10.);
#217=VECTOR('',#734,10.);
#218=VECTOR('',#735,10.);
#219=VECTOR('',#738,10.);
#220=VECTOR('',#739,10.);
#221=VECTOR('',#742,10.);
#222=VECTOR('',#743,10.);
#223=VECTOR('',#746,10.);
#224=VECTOR('',#747,10.);
#225=VECTOR('',#750,10.);
#226=VECTOR('',#751,10.);
#227=VECTOR('',#754,10.);
#228=VERTEX_POINT('',#759);
#229=VERTEX_POINT('',#760);
#230=VERTEX_POINT('',#762);
#231=VERTEX_POINT('',#764);
#232=VERTEX_POINT('',#768);
#233=VERTEX_POINT('',#770);
#234=VERTEX_POINT('',#779);
#235=VERTEX_POINT('',#781);
#236=VERTEX_POINT('',#783);
#237=VERTEX_POINT('',#785);
#238=VERTEX_POINT('',#787);
#239=VERTEX_POINT('',#789);
#240=VERTEX_POINT('',#791);
#241=VERTEX_POINT('',#793);
#242=VERTEX_POINT('',#795);
#243=VERTEX_POINT('',#797);
#244=VERTEX_POINT('',#799);
#245=VERTEX_POINT('',#827);
#246=VERTEX_POINT('',#829);
#247=VERTEX_POINT('',#833);
#248=VERTEX_POINT('',#837);
#249=VERTEX_POINT('',#838);
#250=VERTEX_POINT('',#843);
#251=VERTEX_POINT('',#844);
#252=VERTEX_POINT('',#849);
#253=VERTEX_POINT('',#853);
#254=VERTEX_POINT('',#857);
#255=VERTEX_POINT('',#914);
#256=VERTEX_POINT('',#952);
#257=VERTEX_POINT('',#953);
#258=VERTEX_POINT('',#955);
#259=VERTEX_POINT('',#957);
#260=VERTEX_POINT('',#961);
#261=VERTEX_POINT('',#963);
#262=VERTEX_POINT('',#967);
#263=VERTEX_POINT('',#969);
#264=VERTEX_POINT('',#971);
#265=VERTEX_POINT('',#973);
#266=VERTEX_POINT('',#975);
#267=VERTEX_POINT('',#977);
#268=VERTEX_POINT('',#979);
#269=VERTEX_POINT('',#981);
#270=VERTEX_POINT('',#983);
#271=VERTEX_POINT('',#987);
#272=VERTEX_POINT('',#989);
#273=VERTEX_POINT('',#993);
#274=VERTEX_POINT('',#999);
#275=VERTEX_POINT('',#1003);
#276=VERTEX_POINT('',#1007);
#277=VERTEX_POINT('',#1011);
#278=VERTEX_POINT('',#1015);
#279=VERTEX_POINT('',#1019);
#280=EDGE_CURVE('',#228,#229,#88,.T.);
#281=EDGE_CURVE('',#229,#230,#89,.T.);
#282=EDGE_CURVE('',#230,#231,#90,.T.);
#283=EDGE_CURVE('',#231,#228,#91,.T.);
#284=EDGE_CURVE('',#232,#229,#92,.T.);
#285=EDGE_CURVE('',#233,#232,#24,.T.);
#286=EDGE_CURVE('',#233,#230,#93,.T.);
#287=EDGE_CURVE('',#228,#234,#94,.T.);
#288=EDGE_CURVE('',#234,#235,#95,.T.);
#289=EDGE_CURVE('',#235,#236,#96,.T.);
#290=EDGE_CURVE('',#236,#237,#97,.T.);
#291=EDGE_CURVE('',#237,#238,#98,.T.);
#292=EDGE_CURVE('',#238,#239,#99,.T.);
#293=EDGE_CURVE('',#239,#240,#100,.T.);
#294=EDGE_CURVE('',#240,#241,#101,.T.);
#295=EDGE_CURVE('',#241,#242,#102,.T.);
#296=EDGE_CURVE('',#243,#242,#103,.T.);
#297=EDGE_CURVE('',#243,#244,#104,.T.);
#298=EDGE_CURVE('',#244,#232,#25,.F.);
#299=EDGE_CURVE('',#242,#245,#105,.T.);
#300=EDGE_CURVE('',#245,#246,#106,.T.);
#301=EDGE_CURVE('',#246,#243,#107,.T.);
#302=EDGE_CURVE('',#241,#247,#108,.T.);
#303=EDGE_CURVE('',#247,#245,#109,.T.);
#304=EDGE_CURVE('',#248,#249,#110,.T.);
#305=EDGE_CURVE('',#235,#248,#111,.T.);
#306=EDGE_CURVE('',#249,#234,#112,.T.);
#307=EDGE_CURVE('',#250,#251,#113,.T.);
#308=EDGE_CURVE('',#250,#237,#114,.T.);
#309=EDGE_CURVE('',#251,#236,#115,.T.);
#310=EDGE_CURVE('',#252,#250,#116,.T.);
#311=EDGE_CURVE('',#252,#238,#117,.T.);
#312=EDGE_CURVE('',#253,#252,#118,.T.);
#313=EDGE_CURVE('',#239,#253,#119,.T.);
#314=EDGE_CURVE('',#247,#254,#120,.T.);
#315=EDGE_CURVE('',#254,#240,#121,.T.);
#316=EDGE_CURVE('',#231,#249,#122,.T.);
#317=EDGE_CURVE('',#253,#254,#123,.T.);
#318=EDGE_CURVE('',#233,#255,#26,.T.);
#319=EDGE_CURVE('',#255,#244,#27,.F.);
#320=EDGE_CURVE('',#246,#255,#124,.T.);
#321=EDGE_CURVE('',#248,#251,#125,.T.);
#322=EDGE_CURVE('',#256,#257,#13,.T.);
#323=EDGE_CURVE('',#257,#258,#126,.T.);
#324=EDGE_CURVE('',#258,#259,#14,.T.);
#325=EDGE_CURVE('',#259,#256,#127,.T.);
#326=EDGE_CURVE('',#260,#257,#128,.T.);
#327=EDGE_CURVE('',#261,#260,#129,.T.);
#328=EDGE_CURVE('',#261,#258,#130,.T.);
#329=EDGE_CURVE('',#256,#262,#131,.T.);
#330=EDGE_CURVE('',#263,#262,#15,.T.);
#331=EDGE_CURVE('',#263,#264,#132,.T.);
#332=EDGE_CURVE('',#264,#265,#133,.T.);
#333=EDGE_CURVE('',#265,#266,#134,.T.);
#334=EDGE_CURVE('',#266,#267,#135,.T.);
#335=EDGE_CURVE('',#267,#268,#136,.T.);
#336=EDGE_CURVE('',#268,#269,#137,.T.);
#337=EDGE_CURVE('',#269,#270,#138,.T.);
#338=EDGE_CURVE('',#270,#260,#139,.T.);
#339=EDGE_CURVE('',#262,#271,#140,.T.);
#340=EDGE_CURVE('',#271,#272,#16,.T.);
#341=EDGE_CURVE('',#272,#263,#141,.T.);
#342=EDGE_CURVE('',#272,#273,#142,.T.);
#343=EDGE_CURVE('',#273,#264,#143,.T.);
#344=EDGE_CURVE('',#259,#271,#144,.T.);
#345=EDGE_CURVE('',#261,#274,#145,.T.);
#346=EDGE_CURVE('',#274,#270,#146,.T.);
#347=EDGE_CURVE('',#274,#275,#147,.T.);
#348=EDGE_CURVE('',#275,#269,#148,.T.);
#349=EDGE_CURVE('',#276,#275,#149,.T.);
#350=EDGE_CURVE('',#276,#268,#150,.T.);
#351=EDGE_CURVE('',#277,#276,#151,.T.);
#352=EDGE_CURVE('',#277,#267,#152,.T.);
#353=EDGE_CURVE('',#278,#277,#153,.T.);
#354=EDGE_CURVE('',#278,#266,#154,.T.);
#355=EDGE_CURVE('',#279,#278,#155,.T.);
#356=EDGE_CURVE('',#279,#265,#156,.T.);
#357=EDGE_CURVE('',#273,#279,#157,.T.);
#358=ORIENTED_EDGE('',*,*,#280,.T.);
#359=ORIENTED_EDGE('',*,*,#281,.T.);
#360=ORIENTED_EDGE('',*,*,#282,.T.);
#361=ORIENTED_EDGE('',*,*,#283,.T.);
#362=ORIENTED_EDGE('',*,*,#281,.F.);
#363=ORIENTED_EDGE('',*,*,#284,.F.);
#364=ORIENTED_EDGE('',*,*,#285,.F.);
#365=ORIENTED_EDGE('',*,*,#286,.T.);
#366=ORIENTED_EDGE('',*,*,#280,.F.);
#367=ORIENTED_EDGE('',*,*,#287,.T.);
#368=ORIENTED_EDGE('',*,*,#288,.T.);
#369=ORIENTED_EDGE('',*,*,#289,.T.);
#370=ORIENTED_EDGE('',*,*,#290,.T.);
#371=ORIENTED_EDGE('',*,*,#291,.T.);
#372=ORIENTED_EDGE('',*,*,#292,.T.);
#373=ORIENTED_EDGE('',*,*,#293,.T.);
#374=ORIENTED_EDGE('',*,*,#294,.T.);
#375=ORIENTED_EDGE('',*,*,#295,.T.);
#376=ORIENTED_EDGE('',*,*,#296,.F.);
#377=ORIENTED_EDGE('',*,*,#297,.T.);
#378=ORIENTED_EDGE('',*,*,#298,.T.);
#379=ORIENTED_EDGE('',*,*,#284,.T.);
#380=ORIENTED_EDGE('',*,*,#296,.T.);
#381=ORIENTED_EDGE('',*,*,#299,.T.);
#382=ORIENTED_EDGE('',*,*,#300,.T.);
#383=ORIENTED_EDGE('',*,*,#301,.T.);
#384=ORIENTED_EDGE('',*,*,#299,.F.);
#385=ORIENTED_EDGE('',*,*,#295,.F.);
#386=ORIENTED_EDGE('',*,*,#302,.T.);
#387=ORIENTED_EDGE('',*,*,#303,.T.);
#388=ORIENTED_EDGE('',*,*,#304,.F.);
#389=ORIENTED_EDGE('',*,*,#305,.F.);
#390=ORIENTED_EDGE('',*,*,#288,.F.);
#391=ORIENTED_EDGE('',*,*,#306,.F.);
#392=ORIENTED_EDGE('',*,*,#307,.F.);
#393=ORIENTED_EDGE('',*,*,#308,.T.);
#394=ORIENTED_EDGE('',*,*,#290,.F.);
#395=ORIENTED_EDGE('',*,*,#309,.F.);
#396=ORIENTED_EDGE('',*,*,#310,.F.);
#397=ORIENTED_EDGE('',*,*,#311,.T.);
#398=ORIENTED_EDGE('',*,*,#291,.F.);
#399=ORIENTED_EDGE('',*,*,#308,.F.);
#400=ORIENTED_EDGE('',*,*,#312,.F.);
#401=ORIENTED_EDGE('',*,*,#313,.F.);
#402=ORIENTED_EDGE('',*,*,#292,.F.);
#403=ORIENTED_EDGE('',*,*,#311,.F.);
#404=ORIENTED_EDGE('',*,*,#314,.F.);
#405=ORIENTED_EDGE('',*,*,#302,.F.);
#406=ORIENTED_EDGE('',*,*,#294,.F.);
#407=ORIENTED_EDGE('',*,*,#315,.F.);
#408=ORIENTED_EDGE('',*,*,#283,.F.);
#409=ORIENTED_EDGE('',*,*,#316,.T.);
#410=ORIENTED_EDGE('',*,*,#306,.T.);
#411=ORIENTED_EDGE('',*,*,#287,.F.);
#412=ORIENTED_EDGE('',*,*,#313,.T.);
#413=ORIENTED_EDGE('',*,*,#317,.T.);
#414=ORIENTED_EDGE('',*,*,#315,.T.);
#415=ORIENTED_EDGE('',*,*,#293,.F.);
#416=ORIENTED_EDGE('',*,*,#318,.F.);
#417=ORIENTED_EDGE('',*,*,#285,.T.);
#418=ORIENTED_EDGE('',*,*,#298,.F.);
#419=ORIENTED_EDGE('',*,*,#319,.F.);
#420=ORIENTED_EDGE('',*,*,#301,.F.);
#421=ORIENTED_EDGE('',*,*,#320,.T.);
#422=ORIENTED_EDGE('',*,*,#319,.T.);
#423=ORIENTED_EDGE('',*,*,#297,.F.);
#424=ORIENTED_EDGE('',*,*,#305,.T.);
#425=ORIENTED_EDGE('',*,*,#321,.T.);
#426=ORIENTED_EDGE('',*,*,#309,.T.);
#427=ORIENTED_EDGE('',*,*,#289,.F.);
#428=ORIENTED_EDGE('',*,*,#282,.F.);
#429=ORIENTED_EDGE('',*,*,#286,.F.);
#430=ORIENTED_EDGE('',*,*,#318,.T.);
#431=ORIENTED_EDGE('',*,*,#320,.F.);
#432=ORIENTED_EDGE('',*,*,#300,.F.);
#433=ORIENTED_EDGE('',*,*,#303,.F.);
#434=ORIENTED_EDGE('',*,*,#314,.T.);
#435=ORIENTED_EDGE('',*,*,#317,.F.);
#436=ORIENTED_EDGE('',*,*,#312,.T.);
#437=ORIENTED_EDGE('',*,*,#310,.T.);
#438=ORIENTED_EDGE('',*,*,#307,.T.);
#439=ORIENTED_EDGE('',*,*,#321,.F.);
#440=ORIENTED_EDGE('',*,*,#304,.T.);
#441=ORIENTED_EDGE('',*,*,#316,.F.);
#442=ORIENTED_EDGE('',*,*,#322,.T.);
#443=ORIENTED_EDGE('',*,*,#323,.T.);
#444=ORIENTED_EDGE('',*,*,#324,.T.);
#445=ORIENTED_EDGE('',*,*,#325,.T.);
#446=ORIENTED_EDGE('',*,*,#323,.F.);
#447=ORIENTED_EDGE('',*,*,#326,.F.);
#448=ORIENTED_EDGE('',*,*,#327,.F.);
#449=ORIENTED_EDGE('',*,*,#328,.T.);
#450=ORIENTED_EDGE('',*,*,#322,.F.);
#451=ORIENTED_EDGE('',*,*,#329,.T.);
#452=ORIENTED_EDGE('',*,*,#330,.F.);
#453=ORIENTED_EDGE('',*,*,#331,.T.);
#454=ORIENTED_EDGE('',*,*,#332,.T.);
#455=ORIENTED_EDGE('',*,*,#333,.T.);
#456=ORIENTED_EDGE('',*,*,#334,.T.);
#457=ORIENTED_EDGE('',*,*,#335,.T.);
#458=ORIENTED_EDGE('',*,*,#336,.T.);
#459=ORIENTED_EDGE('',*,*,#337,.T.);
#460=ORIENTED_EDGE('',*,*,#338,.T.);
#461=ORIENTED_EDGE('',*,*,#326,.T.);
#462=ORIENTED_EDGE('',*,*,#330,.T.);
#463=ORIENTED_EDGE('',*,*,#339,.T.);
#464=ORIENTED_EDGE('',*,*,#340,.T.);
#465=ORIENTED_EDGE('',*,*,#341,.T.);
#466=ORIENTED_EDGE('',*,*,#341,.F.);
#467=ORIENTED_EDGE('',*,*,#342,.T.);
#468=ORIENTED_EDGE('',*,*,#343,.T.);
#469=ORIENTED_EDGE('',*,*,#331,.F.);
#470=ORIENTED_EDGE('',*,*,#325,.F.);
#471=ORIENTED_EDGE('',*,*,#344,.T.);
#472=ORIENTED_EDGE('',*,*,#339,.F.);
#473=ORIENTED_EDGE('',*,*,#329,.F.);
#474=ORIENTED_EDGE('',*,*,#345,.F.);
#475=ORIENTED_EDGE('',*,*,#327,.T.);
#476=ORIENTED_EDGE('',*,*,#338,.F.);
#477=ORIENTED_EDGE('',*,*,#346,.F.);
#478=ORIENTED_EDGE('',*,*,#347,.F.);
#479=ORIENTED_EDGE('',*,*,#346,.T.);
#480=ORIENTED_EDGE('',*,*,#337,.F.);
#481=ORIENTED_EDGE('',*,*,#348,.F.);
#482=ORIENTED_EDGE('',*,*,#349,.T.);
#483=ORIENTED_EDGE('',*,*,#348,.T.);
#484=ORIENTED_EDGE('',*,*,#336,.F.);
#485=ORIENTED_EDGE('',*,*,#350,.F.);
#486=ORIENTED_EDGE('',*,*,#351,.T.);
#487=ORIENTED_EDGE('',*,*,#350,.T.);
#488=ORIENTED_EDGE('',*,*,#335,.F.);
#489=ORIENTED_EDGE('',*,*,#352,.F.);
#490=ORIENTED_EDGE('',*,*,#353,.T.);
#491=ORIENTED_EDGE('',*,*,#352,.T.);
#492=ORIENTED_EDGE('',*,*,#334,.F.);
#493=ORIENTED_EDGE('',*,*,#354,.F.);
#494=ORIENTED_EDGE('',*,*,#355,.T.);
#495=ORIENTED_EDGE('',*,*,#354,.T.);
#496=ORIENTED_EDGE('',*,*,#333,.F.);
#497=ORIENTED_EDGE('',*,*,#356,.F.);
#498=ORIENTED_EDGE('',*,*,#357,.T.);
#499=ORIENTED_EDGE('',*,*,#356,.T.);
#500=ORIENTED_EDGE('',*,*,#332,.F.);
#501=ORIENTED_EDGE('',*,*,#343,.F.);
#502=ORIENTED_EDGE('',*,*,#324,.F.);
#503=ORIENTED_EDGE('',*,*,#328,.F.);
#504=ORIENTED_EDGE('',*,*,#345,.T.);
#505=ORIENTED_EDGE('',*,*,#347,.T.);
#506=ORIENTED_EDGE('',*,*,#349,.F.);
#507=ORIENTED_EDGE('',*,*,#351,.F.);
#508=ORIENTED_EDGE('',*,*,#353,.F.);
#509=ORIENTED_EDGE('',*,*,#355,.F.);
#510=ORIENTED_EDGE('',*,*,#357,.F.);
#511=ORIENTED_EDGE('',*,*,#342,.F.);
#512=ORIENTED_EDGE('',*,*,#340,.F.);
#513=ORIENTED_EDGE('',*,*,#344,.F.);
#514=PLANE('',#586);
#515=PLANE('',#587);
#516=PLANE('',#588);
#517=PLANE('',#589);
#518=PLANE('',#590);
#519=PLANE('',#591);
#520=PLANE('',#592);
#521=PLANE('',#593);
#522=PLANE('',#594);
#523=PLANE('',#595);
#524=PLANE('',#596);
#525=PLANE('',#597);
#526=PLANE('',#598);
#527=PLANE('',#599);
#528=PLANE('',#600);
#529=PLANE('',#604);
#530=PLANE('',#605);
#531=PLANE('',#609);
#532=PLANE('',#610);
#533=PLANE('',#611);
#534=PLANE('',#612);
#535=PLANE('',#613);
#536=PLANE('',#614);
#537=PLANE('',#615);
#538=PLANE('',#616);
#539=PLANE('',#617);
#540=PLANE('',#618);
#541=ADVANCED_FACE('',(#28),#514,.T.);
#542=ADVANCED_FACE('',(#29),#515,.T.);
#543=ADVANCED_FACE('',(#30),#516,.T.);
#544=ADVANCED_FACE('',(#31),#517,.T.);
#545=ADVANCED_FACE('',(#32),#518,.T.);
#546=ADVANCED_FACE('',(#33),#519,.F.);
#547=ADVANCED_FACE('',(#34),#520,.F.);
#548=ADVANCED_FACE('',(#35),#521,.F.);
#549=ADVANCED_FACE('',(#36),#522,.F.);
#550=ADVANCED_FACE('',(#37),#523,.F.);
#551=ADVANCED_FACE('',(#38),#524,.T.);
#552=ADVANCED_FACE('',(#39),#525,.T.);
#553=ADVANCED_FACE('',(#40),#23,.T.);
#554=ADVANCED_FACE('',(#41),#526,.T.);
#555=ADVANCED_FACE('',(#42),#527,.T.);
#556=ADVANCED_FACE('',(#43),#528,.F.);
#557=ADVANCED_FACE('',(#44),#17,.T.);
#558=ADVANCED_FACE('',(#45),#529,.T.);
#559=ADVANCED_FACE('',(#46),#530,.T.);
#560=ADVANCED_FACE('',(#47),#18,.T.);
#561=ADVANCED_FACE('',(#48),#531,.T.);
#562=ADVANCED_FACE('',(#49),#532,.T.);
#563=ADVANCED_FACE('',(#50),#533,.T.);
#564=ADVANCED_FACE('',(#51),#534,.T.);
#565=ADVANCED_FACE('',(#52),#535,.T.);
#566=ADVANCED_FACE('',(#53),#536,.T.);
#567=ADVANCED_FACE('',(#54),#537,.T.);
#568=ADVANCED_FACE('',(#55),#538,.T.);
#569=ADVANCED_FACE('',(#56),#539,.T.);
#570=ADVANCED_FACE('',(#57),#540,.T.);
#571=CLOSED_SHELL('',(#541,#542,#543,#544,#545,#546,#547,#548,#549,#550,
#551,#552,#553,#554,#555,#556));
#572=CLOSED_SHELL('',(#557,#558,#559,#560,#561,#562,#563,#564,#565,#566,
#567,#568,#569,#570));
#573=DERIVED_UNIT_ELEMENT(#575,1.);
#574=DERIVED_UNIT_ELEMENT(#1030,-3.);
#575=(
MASS_UNIT()
NAMED_UNIT(*)
SI_UNIT(.KILO.,.GRAM.)
);
#576=DERIVED_UNIT((#573,#574));
#577=MEASURE_REPRESENTATION_ITEM('density measure',
POSITIVE_RATIO_MEASURE(7850.),#576);
#578=PROPERTY_DEFINITION_REPRESENTATION(#583,#580);
#579=PROPERTY_DEFINITION_REPRESENTATION(#584,#581);
#580=REPRESENTATION('material name',(#582),#1027);
#581=REPRESENTATION('density',(#577),#1027);
#582=DESCRIPTIVE_REPRESENTATION_ITEM('Steel','Steel');
#583=PROPERTY_DEFINITION('material property','material name',#1037);
#584=PROPERTY_DEFINITION('material property','density of part',#1037);
#585=AXIS2_PLACEMENT_3D('',#757,#619,#620);
#586=AXIS2_PLACEMENT_3D('',#758,#621,#622);
#587=AXIS2_PLACEMENT_3D('',#767,#627,#628);
#588=AXIS2_PLACEMENT_3D('',#778,#631,#632);
#589=AXIS2_PLACEMENT_3D('',#826,#644,#645);
#590=AXIS2_PLACEMENT_3D('',#832,#649,#650);
#591=AXIS2_PLACEMENT_3D('',#836,#653,#654);
#592=AXIS2_PLACEMENT_3D('',#842,#658,#659);
#593=AXIS2_PLACEMENT_3D('',#848,#663,#664);
#594=AXIS2_PLACEMENT_3D('',#852,#667,#668);
#595=AXIS2_PLACEMENT_3D('',#856,#671,#672);
#596=AXIS2_PLACEMENT_3D('',#860,#675,#676);
#597=AXIS2_PLACEMENT_3D('',#862,#678,#679);
#598=AXIS2_PLACEMENT_3D('',#946,#681,#682);
#599=AXIS2_PLACEMENT_3D('',#948,#684,#685);
#600=AXIS2_PLACEMENT_3D('',#950,#687,#688);
#601=AXIS2_PLACEMENT_3D('',#951,#689,#690);
#602=AXIS2_PLACEMENT_3D('',#954,#691,#692);
#603=AXIS2_PLACEMENT_3D('',#958,#694,#695);
#604=AXIS2_PLACEMENT_3D('',#960,#697,#698);
#605=AXIS2_PLACEMENT_3D('',#966,#702,#703);
#606=AXIS2_PLACEMENT_3D('',#970,#705,#706);
#607=AXIS2_PLACEMENT_3D('',#986,#715,#716);
#608=AXIS2_PLACEMENT_3D('',#990,#718,#719);
#609=AXIS2_PLACEMENT_3D('',#992,#721,#722);
#610=AXIS2_PLACEMENT_3D('',#996,#725,#726);
#611=AXIS2_PLACEMENT_3D('',#998,#728,#729);
#612=AXIS2_PLACEMENT_3D('',#1002,#732,#733);
#613=AXIS2_PLACEMENT_3D('',#1006,#736,#737);
#614=AXIS2_PLACEMENT_3D('',#1010,#740,#741);
#615=AXIS2_PLACEMENT_3D('',#1014,#744,#745);
#616=AXIS2_PLACEMENT_3D('',#1018,#748,#749);
#617=AXIS2_PLACEMENT_3D('',#1022,#752,#753);
#618=AXIS2_PLACEMENT_3D('',#1024,#755,#756);
#619=DIRECTION('axis',(0.,0.,1.));
#620=DIRECTION('refdir',(1.,0.,0.));
#621=DIRECTION('center_axis',(0.,-0.707106781186546,0.707106781186549));
#622=DIRECTION('ref_axis',(1.,0.,0.));
#623=DIRECTION('',(0.,0.707106781186549,0.707106781186546));
#624=DIRECTION('',(-1.,0.,0.));
#625=DIRECTION('',(0.,-0.707106781186549,-0.707106781186546));
#626=DIRECTION('',(1.,0.,0.));
#627=DIRECTION('center_axis',(0.,0.,1.));
#628=DIRECTION('ref_axis',(0.,-1.,0.));
#629=DIRECTION('',(0.,-1.,0.));
#630=DIRECTION('',(0.,-1.,0.));
#631=DIRECTION('center_axis',(1.,0.,0.));
#632=DIRECTION('ref_axis',(0.,1.,0.));
#633=DIRECTION('',(0.,0.,-1.));
#634=DIRECTION('',(0.,0.707106781186548,-0.707106781186548));
#635=DIRECTION('',(0.,1.,0.));
#636=DIRECTION('',(0.,0.,1.));
#637=DIRECTION('',(0.,1.,0.));
#638=DIRECTION('',(0.,0.,-1.));
#639=DIRECTION('',(0.,1.,0.));
#640=DIRECTION('',(0.,0.707106781186548,0.707106781186548));
#641=DIRECTION('',(0.,0.,1.));
#642=DIRECTION('',(0.,0.707106781186546,-0.707106781186549));
#643=DIRECTION('',(0.,-1.,0.));
#644=DIRECTION('center_axis',(0.,0.707106781186549,0.707106781186546));
#645=DIRECTION('ref_axis',(1.,0.,0.));
#646=DIRECTION('',(-1.,0.,0.));
#647=DIRECTION('',(0.,-0.707106781186546,0.707106781186549));
#648=DIRECTION('',(1.,0.,0.));
#649=DIRECTION('center_axis',(0.,1.,0.));
#650=DIRECTION('ref_axis',(0.,0.,1.));
#651=DIRECTION('',(-1.,0.,0.));
#652=DIRECTION('',(0.,0.,1.));
#653=DIRECTION('center_axis',(0.,0.707106781186548,0.707106781186548));
#654=DIRECTION('ref_axis',(0.,-0.707106781186548,0.707106781186548));
#655=DIRECTION('',(0.,-0.707106781186548,0.707106781186548));
#656=DIRECTION('',(-1.,0.,0.));
#657=DIRECTION('',(1.,0.,0.));
#658=DIRECTION('center_axis',(0.,-1.,0.));
#659=DIRECTION('ref_axis',(0.,0.,-1.));
#660=DIRECTION('',(0.,0.,-1.));
#661=DIRECTION('',(1.,0.,0.));
#662=DIRECTION('',(1.,0.,0.));
#663=DIRECTION('center_axis',(0.,0.,1.));
#664=DIRECTION('ref_axis',(0.,-1.,0.));
#665=DIRECTION('',(0.,-1.,0.));
#666=DIRECTION('',(1.,0.,0.));
#667=DIRECTION('center_axis',(0.,1.,0.));
#668=DIRECTION('ref_axis',(0.,0.,1.));
#669=DIRECTION('',(0.,0.,1.));
#670=DIRECTION('',(-1.,0.,0.));
#671=DIRECTION('center_axis',(0.,-0.707106781186548,0.707106781186548));
#672=DIRECTION('ref_axis',(0.,-0.707106781186548,-0.707106781186548));
#673=DIRECTION('',(0.,-0.707106781186548,-0.707106781186548));
#674=DIRECTION('',(1.,0.,0.));
#675=DIRECTION('center_axis',(0.,-1.,0.));
#676=DIRECTION('ref_axis',(0.,0.,-1.));
#677=DIRECTION('',(0.,0.,-1.));
#678=DIRECTION('center_axis',(0.,0.,-1.));
#679=DIRECTION('ref_axis',(0.,1.,0.));
#680=DIRECTION('',(0.,1.,0.));
#681=DIRECTION('center_axis',(0.,0.,1.));
#682=DIRECTION('ref_axis',(0.,-1.,0.));
#683=DIRECTION('',(0.,-1.,0.));
#684=DIRECTION('center_axis',(0.,0.,-1.));
#685=DIRECTION('ref_axis',(0.,1.,0.));
#686=DIRECTION('',(0.,1.,0.));
#687=DIRECTION('center_axis',(1.,0.,0.));
#688=DIRECTION('ref_axis',(0.,1.,0.));
#689=DIRECTION('center_axis',(1.,0.,0.));
#690=DIRECTION('ref_axis',(0.,-0.707106781186548,-0.707106781186548));
#691=DIRECTION('center_axis',(-1.,0.,0.));
#692=DIRECTION('ref_axis',(0.,-0.707106781186548,-0.707106781186548));
#693=DIRECTION('',(-1.,0.,0.));
#694=DIRECTION('center_axis',(1.,0.,0.));
#695=DIRECTION('ref_axis',(0.,-0.707106781186548,-0.707106781186548));
#696=DIRECTION('',(1.,0.,0.));
#697=DIRECTION('center_axis',(0.,-1.,0.));
#698=DIRECTION('ref_axis',(0.,0.,-1.));
#699=DIRECTION('',(0.,0.,-1.));
#700=DIRECTION('',(1.,0.,0.));
#701=DIRECTION('',(0.,0.,-1.));
#702=DIRECTION('center_axis',(1.,0.,0.));
#703=DIRECTION('ref_axis',(0.,0.,-1.));
#704=DIRECTION('',(0.,1.,0.));
#705=DIRECTION('center_axis',(-1.,0.,0.));
#706=DIRECTION('ref_axis',(0.,0.707106781186546,-0.707106781186549));
#707=DIRECTION('',(0.,0.,1.));
#708=DIRECTION('',(0.,-0.707106781186547,-0.707106781186547));
#709=DIRECTION('',(0.,-1.,0.));
#710=DIRECTION('',(0.,0.,1.));
#711=DIRECTION('',(0.,-1.,0.));
#712=DIRECTION('',(0.,0.,-1.));
#713=DIRECTION('',(0.,-1.,0.));
#714=DIRECTION('',(0.,-0.707106781186547,0.707106781186547));
#715=DIRECTION('center_axis',(1.,0.,0.));
#716=DIRECTION('ref_axis',(0.,0.707106781186546,-0.707106781186549));
#717=DIRECTION('',(-1.,0.,0.));
#718=DIRECTION('center_axis',(1.,0.,0.));
#719=DIRECTION('ref_axis',(0.,0.707106781186546,-0.707106781186549));
#720=DIRECTION('',(1.,0.,0.));
#721=DIRECTION('center_axis',(0.,1.,0.));
#722=DIRECTION('ref_axis',(0.,0.,1.));
#723=DIRECTION('',(0.,0.,1.));
#724=DIRECTION('',(1.,0.,0.));
#725=DIRECTION('center_axis',(0.,0.,-1.));
#726=DIRECTION('ref_axis',(0.,1.,0.));
#727=DIRECTION('',(0.,1.,0.));
#728=DIRECTION('center_axis',(0.,0.707106781186548,0.707106781186548));
#729=DIRECTION('ref_axis',(0.,-0.707106781186548,0.707106781186548));
#730=DIRECTION('',(0.,0.707106781186547,-0.707106781186547));
#731=DIRECTION('',(1.,0.,0.));
#732=DIRECTION('center_axis',(0.,0.,1.));
#733=DIRECTION('ref_axis',(0.,-1.,0.));
#734=DIRECTION('',(0.,1.,0.));
#735=DIRECTION('',(1.,0.,0.));
#736=DIRECTION('center_axis',(0.,-1.,0.));
#737=DIRECTION('ref_axis',(0.,0.,-1.));
#738=DIRECTION('',(0.,0.,-1.));
#739=DIRECTION('',(1.,0.,0.));
#740=DIRECTION('center_axis',(0.,0.,1.));
#741=DIRECTION('ref_axis',(0.,-1.,0.));
#742=DIRECTION('',(0.,-1.,0.));
#743=DIRECTION('',(1.,0.,0.));
#744=DIRECTION('center_axis',(0.,1.,0.));
#745=DIRECTION('ref_axis',(0.,0.,1.));
#746=DIRECTION('',(0.,0.,1.));
#747=DIRECTION('',(1.,0.,0.));
#748=DIRECTION('center_axis',(0.,0.,1.));
#749=DIRECTION('ref_axis',(0.,-1.,0.));
#750=DIRECTION('',(0.,-1.,0.));
#751=DIRECTION('',(1.,0.,0.));
#752=DIRECTION('center_axis',(0.,-0.707106781186548,0.707106781186548));
#753=DIRECTION('ref_axis',(0.,-0.707106781186548,-0.707106781186548));
#754=DIRECTION('',(0.,-0.707106781186547,-0.707106781186547));
#755=DIRECTION('center_axis',(-1.,0.,0.));
#756=DIRECTION('ref_axis',(0.,-1.,0.));
#757=CARTESIAN_POINT('',(0.,0.,0.));
#758=CARTESIAN_POINT('Origin',(0.,0.5,24.5));
#759=CARTESIAN_POINT('',(50.,0.,24.));
#760=CARTESIAN_POINT('',(50.,0.999999999999996,25.));
#761=CARTESIAN_POINT('',(50.,4.50000000000002,28.5));
#762=CARTESIAN_POINT('',(0.,0.999999999999996,25.));
#763=CARTESIAN_POINT('',(0.,1.,25.));
#764=CARTESIAN_POINT('',(0.,0.,24.));
#765=CARTESIAN_POINT('',(0.,4.50000000000002,28.5));
#766=CARTESIAN_POINT('',(0.,0.,24.));
#767=CARTESIAN_POINT('Origin',(0.,4.50000006705523,25.));
#768=CARTESIAN_POINT('',(50.,3.49980008704526,25.));
#769=CARTESIAN_POINT('',(50.,57.,25.));
#770=CARTESIAN_POINT('',(0.,3.49980008704526,25.));
#771=CARTESIAN_POINT('Ctrl Pts',(0.,3.49980008704527,25.));
#772=CARTESIAN_POINT('Ctrl Pts',(8.33333333333333,3.49980008704527,25.));
#773=CARTESIAN_POINT('Ctrl Pts',(16.6666666666667,3.49980008704527,25.));
#774=CARTESIAN_POINT('Ctrl Pts',(33.3333333333333,3.49980008704527,25.));
#775=CARTESIAN_POINT('Ctrl Pts',(41.6666666666667,3.49980008704527,25.));
#776=CARTESIAN_POINT('Ctrl Pts',(50.,3.49980008704527,25.));
#777=CARTESIAN_POINT('',(0.,57.,25.));
#778=CARTESIAN_POINT('Origin',(50.,28.5,12.5));
#779=CARTESIAN_POINT('',(50.,0.,8.00000011920929));
#780=CARTESIAN_POINT('',(50.,0.,25.));
#781=CARTESIAN_POINT('',(50.,8.00000011920929,0.));
#782=CARTESIAN_POINT('',(50.,10.000000089407,-1.99999997019768));
#783=CARTESIAN_POINT('',(50.,12.0000001788139,0.));
#784=CARTESIAN_POINT('',(50.,0.,0.));
#785=CARTESIAN_POINT('',(50.,12.0000001788139,1.00000001490116));
#786=CARTESIAN_POINT('',(50.,12.0000001788139,6.75000000745058));
#787=CARTESIAN_POINT('',(50.,45.0000006705523,1.00000001490116));
#788=CARTESIAN_POINT('',(50.,36.7500003352761,1.00000001490116));
#789=CARTESIAN_POINT('',(50.,45.0000006705523,0.));
#790=CARTESIAN_POINT('',(50.,45.0000006705523,6.25));
#791=CARTESIAN_POINT('',(50.,49.0000007301569,0.));
#792=CARTESIAN_POINT('',(50.,0.,0.));
#793=CARTESIAN_POINT('',(50.,57.0000008493662,8.00000011920929));
#794=CARTESIAN_POINT('',(50.,51.0000006072223,1.99999987706542));
#795=CARTESIAN_POINT('',(50.,57.,24.));
#796=CARTESIAN_POINT('',(50.,57.,0.));
#797=CARTESIAN_POINT('',(50.,56.,25.));
#798=CARTESIAN_POINT('',(50.,52.5,28.5));
#799=CARTESIAN_POINT('',(50.,53.5002000464931,25.));
#800=CARTESIAN_POINT('',(50.,57.,25.));
#801=CARTESIAN_POINT('Ctrl Pts',(50.,3.49980008704527,25.));
#802=CARTESIAN_POINT('Ctrl Pts',(50.,3.4999333937239,24.9933346661675));
#803=CARTESIAN_POINT('Ctrl Pts',(50.,3.50006670040254,24.986669332335));
#804=CARTESIAN_POINT('Ctrl Pts',(50.,3.50020000708118,24.9800039985026));
#805=CARTESIAN_POINT('Ctrl Pts',(50.,3.51789387818752,24.095310456368));
#806=CARTESIAN_POINT('Ctrl Pts',(50.,3.5671470072926,23.2458536422499));
#807=CARTESIAN_POINT('Ctrl Pts',(50.,3.64669899218388,22.4295497398129));
#808=CARTESIAN_POINT('Ctrl Pts',(50.,4.21898901697751,16.5571308277863));
#809=CARTESIAN_POINT('Ctrl Pts',(50.,6.39351092235101,12.3636650714997));
#810=CARTESIAN_POINT('Ctrl Pts',(50.,9.54036438420265,9.40269744771668));
#811=CARTESIAN_POINT('Ctrl Pts',(50.,12.9717161962071,6.17403690018156));
#812=CARTESIAN_POINT('Ctrl Pts',(50.,17.4887874844985,4.39867491973922));
#813=CARTESIAN_POINT('Ctrl Pts',(50.,22.2824202585571,3.5798566828297));
#814=CARTESIAN_POINT('Ctrl Pts',(50.,26.9823058166607,2.7770517564305));
#815=CARTESIAN_POINT('Ctrl Pts',(50.,31.9689583614763,2.88993884694792));
#816=CARTESIAN_POINT('Ctrl Pts',(50.,36.5804321613407,3.95260177926252));
#817=CARTESIAN_POINT('Ctrl Pts',(50.,41.3496838080108,5.0516228644405));
#818=CARTESIAN_POINT('Ctrl Pts',(50.,45.7457988677265,7.17912740348098));
#819=CARTESIAN_POINT('Ctrl Pts',(50.,48.8759630347364,10.8988605255259));
#820=CARTESIAN_POINT('Ctrl Pts',(50.,51.6538473982863,14.1999616579238));
#821=CARTESIAN_POINT('Ctrl Pts',(50.,53.3749019261137,18.7350851123516));
#822=CARTESIAN_POINT('Ctrl Pts',(50.,53.4998001276011,24.9800040270956));
#823=CARTESIAN_POINT('Ctrl Pts',(50.,53.4999334338985,24.9866693513972));
#824=CARTESIAN_POINT('Ctrl Pts',(50.,53.5000667401958,24.9933346756988));
#825=CARTESIAN_POINT('Ctrl Pts',(50.,53.5002000464931,25.0000000000004));
#826=CARTESIAN_POINT('Origin',(0.,56.5,24.5));
#827=CARTESIAN_POINT('',(0.,57.,24.));
#828=CARTESIAN_POINT('',(0.,57.,24.));
#829=CARTESIAN_POINT('',(0.,56.,25.));
#830=CARTESIAN_POINT('',(0.,52.5,28.5));
#831=CARTESIAN_POINT('',(0.,56.,25.));
#832=CARTESIAN_POINT('Origin',(0.,57.,0.));
#833=CARTESIAN_POINT('',(0.,57.0000008493662,8.00000011920929));
#834=CARTESIAN_POINT('',(0.,57.,7.99999926984311));
#835=CARTESIAN_POINT('',(0.,57.,0.));
#836=CARTESIAN_POINT('Origin',(0.,8.00000011920929,0.));
#837=CARTESIAN_POINT('',(0.,8.00000011920929,0.));
#838=CARTESIAN_POINT('',(0.,0.,8.00000011920929));
#839=CARTESIAN_POINT('',(0.,10.000000089407,-1.99999997019768));
#840=CARTESIAN_POINT('',(0.,8.00000011920929,0.));
#841=CARTESIAN_POINT('',(0.,-6.93889390390723E-17,8.00000011920929));
#842=CARTESIAN_POINT('Origin',(0.,12.0000001788139,1.00000001490116));
#843=CARTESIAN_POINT('',(0.,12.0000001788139,1.00000001490116));
#844=CARTESIAN_POINT('',(0.,12.0000001788139,0.));
#845=CARTESIAN_POINT('',(0.,12.0000001788139,6.75000000745058));
#846=CARTESIAN_POINT('',(0.,12.0000001788139,1.00000001490116));
#847=CARTESIAN_POINT('',(0.,12.0000001788139,0.));
#848=CARTESIAN_POINT('Origin',(0.,45.0000006705523,1.00000001490116));
#849=CARTESIAN_POINT('',(0.,45.0000006705523,1.00000001490116));
#850=CARTESIAN_POINT('',(0.,36.7500003352761,1.00000001490116));
#851=CARTESIAN_POINT('',(0.,45.0000006705523,1.00000001490116));
#852=CARTESIAN_POINT('Origin',(0.,45.0000006705523,0.));
#853=CARTESIAN_POINT('',(0.,45.0000006705523,0.));
#854=CARTESIAN_POINT('',(0.,45.0000006705523,6.25));
#855=CARTESIAN_POINT('',(0.,45.0000006705523,0.));
#856=CARTESIAN_POINT('Origin',(0.,57.0000008493662,8.00000011920929));
#857=CARTESIAN_POINT('',(0.,49.0000007301569,0.));
#858=CARTESIAN_POINT('',(0.,51.0000006072223,1.99999987706542));
#859=CARTESIAN_POINT('',(0.,49.0000007301569,-1.11022302462516E-15));
#860=CARTESIAN_POINT('Origin',(0.,0.,25.));
#861=CARTESIAN_POINT('',(0.,0.,25.));
#862=CARTESIAN_POINT('Origin',(0.,0.,0.));
#863=CARTESIAN_POINT('',(0.,0.,0.));
#864=CARTESIAN_POINT('Ctrl Pts',(0.,53.5198000992889,25.9800040270956));
#865=CARTESIAN_POINT('Ctrl Pts',(50.,53.5198000992889,25.9800040270956));
#866=CARTESIAN_POINT('Ctrl Pts',(0.,53.5131334420597,25.6466706937623));
#867=CARTESIAN_POINT('Ctrl Pts',(50.,53.5131334420597,25.6466706937623));
#868=CARTESIAN_POINT('Ctrl Pts',(0.,53.5064667848304,25.313337360429));
#869=CARTESIAN_POINT('Ctrl Pts',(50.,53.5064667848304,25.313337360429));
#870=CARTESIAN_POINT('Ctrl Pts',(0.,53.4998001276011,24.9800040270956));
#871=CARTESIAN_POINT('Ctrl Pts',(50.,53.4998001276011,24.9800040270956));
#872=CARTESIAN_POINT('Ctrl Pts',(0.,53.3749019261137,18.7350851123516));
#873=CARTESIAN_POINT('Ctrl Pts',(50.,53.3749019261137,18.7350851123516));
#874=CARTESIAN_POINT('Ctrl Pts',(0.,51.6538473982863,14.1999616579238));
#875=CARTESIAN_POINT('Ctrl Pts',(50.,51.6538473982863,14.1999616579238));
#876=CARTESIAN_POINT('Ctrl Pts',(0.,48.8759630347364,10.8988605255259));
#877=CARTESIAN_POINT('Ctrl Pts',(50.,48.8759630347364,10.8988605255259));
#878=CARTESIAN_POINT('Ctrl Pts',(0.,45.7457988677265,7.17912740348098));
#879=CARTESIAN_POINT('Ctrl Pts',(50.,45.7457988677265,7.17912740348098));
#880=CARTESIAN_POINT('Ctrl Pts',(0.,41.3496838080108,5.0516228644405));
#881=CARTESIAN_POINT('Ctrl Pts',(50.,41.3496838080108,5.0516228644405));
#882=CARTESIAN_POINT('Ctrl Pts',(0.,36.5804321613407,3.95260177926252));
#883=CARTESIAN_POINT('Ctrl Pts',(50.,36.5804321613407,3.95260177926252));
#884=CARTESIAN_POINT('Ctrl Pts',(0.,31.9689583614763,2.88993884694792));
#885=CARTESIAN_POINT('Ctrl Pts',(50.,31.9689583614763,2.88993884694792));
#886=CARTESIAN_POINT('Ctrl Pts',(0.,26.9823058166607,2.7770517564305));
#887=CARTESIAN_POINT('Ctrl Pts',(50.,26.9823058166607,2.7770517564305));
#888=CARTESIAN_POINT('Ctrl Pts',(0.,22.2824202585571,3.5798566828297));
#889=CARTESIAN_POINT('Ctrl Pts',(50.,22.2824202585571,3.5798566828297));
#890=CARTESIAN_POINT('Ctrl Pts',(0.,17.4887874844985,4.39867491973922));
#891=CARTESIAN_POINT('Ctrl Pts',(50.,17.4887874844985,4.39867491973922));
#892=CARTESIAN_POINT('Ctrl Pts',(0.,12.9717161962071,6.17403690018156));
#893=CARTESIAN_POINT('Ctrl Pts',(50.,12.9717161962071,6.17403690018156));
#894=CARTESIAN_POINT('Ctrl Pts',(0.,9.54036438420265,9.40269744771668));
#895=CARTESIAN_POINT('Ctrl Pts',(50.,9.54036438420265,9.40269744771668));
#896=CARTESIAN_POINT('Ctrl Pts',(0.,6.39351092235101,12.3636650714997));
#897=CARTESIAN_POINT('Ctrl Pts',(50.,6.39351092235101,12.3636650714997));
#898=CARTESIAN_POINT('Ctrl Pts',(0.,4.21898901697751,16.5571308277863));
#899=CARTESIAN_POINT('Ctrl Pts',(50.,4.21898901697751,16.5571308277863));
#900=CARTESIAN_POINT('Ctrl Pts',(0.,3.64669899218388,22.4295497398129));
#901=CARTESIAN_POINT('Ctrl Pts',(50.,3.64669899218388,22.4295497398129));
#902=CARTESIAN_POINT('Ctrl Pts',(0.,3.5671470072926,23.2458536422499));
#903=CARTESIAN_POINT('Ctrl Pts',(50.,3.5671470072926,23.2458536422499));
#904=CARTESIAN_POINT('Ctrl Pts',(0.,3.51789387818752,24.095310456368));
#905=CARTESIAN_POINT('Ctrl Pts',(50.,3.51789387818752,24.095310456368));
#906=CARTESIAN_POINT('Ctrl Pts',(0.,3.50020000708118,24.9800039985026));
#907=CARTESIAN_POINT('Ctrl Pts',(50.,3.50020000708118,24.9800039985026));
#908=CARTESIAN_POINT('Ctrl Pts',(0.,3.49353334031517,25.3133373318359));
#909=CARTESIAN_POINT('Ctrl Pts',(50.,3.49353334031517,25.3133373318359));
#910=CARTESIAN_POINT('Ctrl Pts',(0.,3.48686667354916,25.6466706651692));
#911=CARTESIAN_POINT('Ctrl Pts',(50.,3.48686667354916,25.6466706651692));
#912=CARTESIAN_POINT('Ctrl Pts',(0.,3.48020000678315,25.9800039985026));
#913=CARTESIAN_POINT('Ctrl Pts',(50.,3.48020000678315,25.9800039985026));
#914=CARTESIAN_POINT('',(0.,53.5002000464931,25.));
#915=CARTESIAN_POINT('Ctrl Pts',(0.,3.49980008704527,25.));
#916=CARTESIAN_POINT('Ctrl Pts',(0.,3.4999333937239,24.9933346661675));
#917=CARTESIAN_POINT('Ctrl Pts',(0.,3.50006670040254,24.986669332335));
#918=CARTESIAN_POINT('Ctrl Pts',(0.,3.50020000708118,24.9800039985026));
#919=CARTESIAN_POINT('Ctrl Pts',(0.,3.51789387818752,24.095310456368));
#920=CARTESIAN_POINT('Ctrl Pts',(0.,3.5671470072926,23.2458536422499));
#921=CARTESIAN_POINT('Ctrl Pts',(0.,3.64669899218388,22.4295497398129));
#922=CARTESIAN_POINT('Ctrl Pts',(0.,4.21898901697751,16.5571308277863));
#923=CARTESIAN_POINT('Ctrl Pts',(0.,6.39351092235101,12.3636650714997));
#924=CARTESIAN_POINT('Ctrl Pts',(0.,9.54036438420265,9.40269744771668));
#925=CARTESIAN_POINT('Ctrl Pts',(0.,12.9717161962071,6.17403690018156));
#926=CARTESIAN_POINT('Ctrl Pts',(0.,17.4887874844985,4.39867491973922));
#927=CARTESIAN_POINT('Ctrl Pts',(0.,22.2824202585571,3.5798566828297));
#928=CARTESIAN_POINT('Ctrl Pts',(0.,26.9823058166607,2.7770517564305));
#929=CARTESIAN_POINT('Ctrl Pts',(0.,31.9689583614763,2.88993884694792));
#930=CARTESIAN_POINT('Ctrl Pts',(0.,36.5804321613407,3.95260177926252));
#931=CARTESIAN_POINT('Ctrl Pts',(0.,41.3496838080108,5.0516228644405));
#932=CARTESIAN_POINT('Ctrl Pts',(0.,45.7457988677265,7.17912740348098));
#933=CARTESIAN_POINT('Ctrl Pts',(0.,48.8759630347364,10.8988605255259));
#934=CARTESIAN_POINT('Ctrl Pts',(0.,51.6538473982863,14.1999616579238));
#935=CARTESIAN_POINT('Ctrl Pts',(0.,53.3749019261137,18.7350851123516));
#936=CARTESIAN_POINT('Ctrl Pts',(0.,53.4998001276011,24.9800040270956));
#937=CARTESIAN_POINT('Ctrl Pts',(0.,53.4999334338985,24.9866693513972));
#938=CARTESIAN_POINT('Ctrl Pts',(0.,53.5000667401958,24.9933346756988));
#939=CARTESIAN_POINT('Ctrl Pts',(0.,53.5002000464931,25.0000000000004));
#940=CARTESIAN_POINT('Ctrl Pts',(50.,53.5002000464931,25.));
#941=CARTESIAN_POINT('Ctrl Pts',(41.6666666666667,53.5002000464931,25.));
#942=CARTESIAN_POINT('Ctrl Pts',(33.3333333333333,53.5002000464931,25.));
#943=CARTESIAN_POINT('Ctrl Pts',(16.6666666666667,53.5002000464931,25.));
#944=CARTESIAN_POINT('Ctrl Pts',(8.33333333333333,53.5002000464931,25.));
#945=CARTESIAN_POINT('Ctrl Pts',(0.,53.5002000464931,25.));
#946=CARTESIAN_POINT('Origin',(0.,57.,25.));
#947=CARTESIAN_POINT('',(0.,57.,25.));
#948=CARTESIAN_POINT('Origin',(0.,0.,0.));
#949=CARTESIAN_POINT('',(0.,0.,0.));
#950=CARTESIAN_POINT('Origin',(0.,28.5,12.5));
#951=CARTESIAN_POINT('Origin',(0.,3.,-2.00000007450581));
#952=CARTESIAN_POINT('',(50.,3.,-5.00000007450581));
#953=CARTESIAN_POINT('',(50.,0.,-2.00000007450581));
#954=CARTESIAN_POINT('Origin',(50.,3.,-2.00000007450581));
#955=CARTESIAN_POINT('',(0.,0.,-2.00000007450581));
#956=CARTESIAN_POINT('',(0.,0.,-2.00000007450581));
#957=CARTESIAN_POINT('',(0.,3.,-5.00000007450581));
#958=CARTESIAN_POINT('Origin',(0.,3.,-2.00000007450581));
#959=CARTESIAN_POINT('',(0.,3.,-5.00000007450581));
#960=CARTESIAN_POINT('Origin',(0.,0.,8.00000011920929));
#961=CARTESIAN_POINT('',(50.,0.,8.00000011920929));
#962=CARTESIAN_POINT('',(50.,0.,8.00000011920929));
#963=CARTESIAN_POINT('',(0.,0.,8.00000011920929));
#964=CARTESIAN_POINT('',(0.,0.,8.00000011920929));
#965=CARTESIAN_POINT('',(0.,0.,8.00000011920929));
#966=CARTESIAN_POINT('Origin',(50.,53.0000007897615,4.00000005960464));
#967=CARTESIAN_POINT('',(50.,54.0000008493662,-5.00000007450581));
#968=CARTESIAN_POINT('',(50.,0.,-5.00000007450581));
#969=CARTESIAN_POINT('',(50.,57.0000008493662,-2.00000007450581));
#970=CARTESIAN_POINT('Origin',(50.,54.0000008493662,-2.00000007450581));
#971=CARTESIAN_POINT('',(50.,57.0000008493662,8.00000011920929));
#972=CARTESIAN_POINT('',(50.,57.0000008493662,-5.00000007450581));
#973=CARTESIAN_POINT('',(50.,49.0000007301569,0.));
#974=CARTESIAN_POINT('',(50.,57.0000008493662,8.00000011920929));
#975=CARTESIAN_POINT('',(50.,45.0000006705523,0.));
#976=CARTESIAN_POINT('',(50.,49.0000007301569,0.));
#977=CARTESIAN_POINT('',(50.,45.0000006705523,1.00000001490116));
#978=CARTESIAN_POINT('',(50.,45.0000006705523,0.));
#979=CARTESIAN_POINT('',(50.,12.0000001788139,1.00000001490116));
#980=CARTESIAN_POINT('',(50.,45.0000006705523,1.00000001490116));
#981=CARTESIAN_POINT('',(50.,12.0000001788139,0.));
#982=CARTESIAN_POINT('',(50.,12.0000001788139,1.00000001490116));
#983=CARTESIAN_POINT('',(50.,8.00000011920929,0.));
#984=CARTESIAN_POINT('',(50.,8.00000011920929,0.));
#985=CARTESIAN_POINT('',(50.,0.,8.00000011920929));
#986=CARTESIAN_POINT('Origin',(0.,54.0000008493662,-2.00000007450581));
#987=CARTESIAN_POINT('',(0.,54.0000008493662,-5.00000007450581));
#988=CARTESIAN_POINT('',(0.,54.0000008493662,-5.00000007450581));
#989=CARTESIAN_POINT('',(0.,57.0000008493662,-2.00000007450581));
#990=CARTESIAN_POINT('Origin',(0.,54.0000008493662,-2.00000007450581));
#991=CARTESIAN_POINT('',(0.,57.0000008493662,-2.00000007450581));
#992=CARTESIAN_POINT('Origin',(0.,57.0000008493662,-5.00000007450581));
#993=CARTESIAN_POINT('',(0.,57.0000008493662,8.00000011920929));
#994=CARTESIAN_POINT('',(0.,57.0000008493662,-5.00000007450581));
#995=CARTESIAN_POINT('',(0.,57.0000008493662,8.00000011920929));
#996=CARTESIAN_POINT('Origin',(0.,0.,-5.00000007450581));
#997=CARTESIAN_POINT('',(0.,0.,-5.00000007450581));
#998=CARTESIAN_POINT('Origin',(0.,8.00000011920929,0.));
#999=CARTESIAN_POINT('',(0.,8.00000011920929,0.));
#1000=CARTESIAN_POINT('',(0.,0.,8.00000011920929));
#1001=CARTESIAN_POINT('',(0.,8.00000011920929,0.));
#1002=CARTESIAN_POINT('Origin',(0.,12.0000001788139,0.));
#1003=CARTESIAN_POINT('',(0.,12.0000001788139,0.));
#1004=CARTESIAN_POINT('',(0.,8.00000011920929,0.));
#1005=CARTESIAN_POINT('',(0.,12.0000001788139,0.));
#1006=CARTESIAN_POINT('Origin',(0.,12.0000001788139,1.00000001490116));
#1007=CARTESIAN_POINT('',(0.,12.0000001788139,1.00000001490116));
#1008=CARTESIAN_POINT('',(0.,12.0000001788139,1.00000001490116));
#1009=CARTESIAN_POINT('',(0.,12.0000001788139,1.00000001490116));
#1010=CARTESIAN_POINT('Origin',(0.,45.0000006705523,1.00000001490116));
#1011=CARTESIAN_POINT('',(0.,45.0000006705523,1.00000001490116));
#1012=CARTESIAN_POINT('',(0.,45.0000006705523,1.00000001490116));
#1013=CARTESIAN_POINT('',(0.,45.0000006705523,1.00000001490116));
#1014=CARTESIAN_POINT('Origin',(0.,45.0000006705523,0.));
#1015=CARTESIAN_POINT('',(0.,45.0000006705523,0.));
#1016=CARTESIAN_POINT('',(0.,45.0000006705523,0.));
#1017=CARTESIAN_POINT('',(0.,45.0000006705523,0.));
#1018=CARTESIAN_POINT('Origin',(0.,49.0000007301569,0.));
#1019=CARTESIAN_POINT('',(0.,49.0000007301569,0.));
#1020=CARTESIAN_POINT('',(0.,49.0000007301569,0.));
#1021=CARTESIAN_POINT('',(0.,49.0000007301569,0.));
#1022=CARTESIAN_POINT('Origin',(0.,57.0000008493662,8.00000011920929));
#1023=CARTESIAN_POINT('',(0.,57.0000008493662,8.00000011920929));
#1024=CARTESIAN_POINT('Origin',(0.,53.0000007897615,4.00000005960464));
#1025=UNCERTAINTY_MEASURE_WITH_UNIT(LENGTH_MEASURE(0.01),#1029,
'DISTANCE_ACCURACY_VALUE',
'Maximum model space distance between geometric entities at asserted c
onnectivities');
#1026=UNCERTAINTY_MEASURE_WITH_UNIT(LENGTH_MEASURE(0.01),#1029,
'DISTANCE_ACCURACY_VALUE',
'Maximum model space distance between geometric entities at asserted c
onnectivities');
#1027=(
GEOMETRIC_REPRESENTATION_CONTEXT(3)
GLOBAL_UNCERTAINTY_ASSIGNED_CONTEXT((#1025))
GLOBAL_UNIT_ASSIGNED_CONTEXT((#1029,#1031,#1032))
REPRESENTATION_CONTEXT('','3D')
);
#1028=(
GEOMETRIC_REPRESENTATION_CONTEXT(3)
GLOBAL_UNCERTAINTY_ASSIGNED_CONTEXT((#1026))
GLOBAL_UNIT_ASSIGNED_CONTEXT((#1029,#1031,#1032))
REPRESENTATION_CONTEXT('','3D')
);
#1029=(
LENGTH_UNIT()
NAMED_UNIT(*)
SI_UNIT(.MILLI.,.METRE.)
);
#1030=(
LENGTH_UNIT()
NAMED_UNIT(*)
SI_UNIT($,.METRE.)
);
#1031=(
NAMED_UNIT(*)
PLANE_ANGLE_UNIT()
SI_UNIT($,.RADIAN.)
);
#1032=(
NAMED_UNIT(*)
SI_UNIT($,.STERADIAN.)
SOLID_ANGLE_UNIT()
);
#1033=SHAPE_DEFINITION_REPRESENTATION(#1034,#1035);
#1034=PRODUCT_DEFINITION_SHAPE('',$,#1037);
#1035=SHAPE_REPRESENTATION('',(#585),#1027);
#1036=PRODUCT_DEFINITION_CONTEXT('part definition',#1041,'design');
#1037=PRODUCT_DEFINITION('neck_template','neck_template v22',#1038,#1036);
#1038=PRODUCT_DEFINITION_FORMATION('',$,#1043);
#1039=PRODUCT_RELATED_PRODUCT_CATEGORY('neck_template v22',
'neck_template v22',(#1043));
#1040=APPLICATION_PROTOCOL_DEFINITION('international standard',
'automotive_design',2009,#1041);
#1041=APPLICATION_CONTEXT(
'Core Data for Automotive Mechanical Design Process');
#1042=PRODUCT_CONTEXT('part definition',#1041,'mechanical');
#1043=PRODUCT('neck_template','neck_template v22',$,(#1042));
#1044=PRESENTATION_STYLE_ASSIGNMENT((#1045));
#1045=SURFACE_STYLE_USAGE(.BOTH.,#1046);
#1046=SURFACE_SIDE_STYLE('',(#1047));
#1047=SURFACE_STYLE_FILL_AREA(#1048);
#1048=FILL_AREA_STYLE('Steel - Satin',(#1049));
#1049=FILL_AREA_STYLE_COLOUR('Steel - Satin',#1050);
#1050=COLOUR_RGB('Steel - Satin',0.627450980392157,0.627450980392157,0.627450980392157);
ENDSEC;
END-ISO-10303-21;
